<svg id="Layer_1" xmlns="http://www.w3.org/2000/svg" viewBox="0 0 64 64"><style>.st0{fill-rule:evenodd;clip-rule:evenodd}.st0,.st1{fill:#fff}</style><g id="XMLID_3_"><path id="XMLID_15_" class="st0 shadow" d="M32 2.3C15.6 2.3 2.3 15.6 2.3 32S15.6 61.7 32 61.7 61.7 48.4 61.7 32 48.4 2.3 32 2.3zM32 60C16.5 60 4 47.5 4 32S16.5 4 32 4s28 12.5 28 28-12.5 28-28 28z"/><g id="XMLID_7_"><path id="XMLID_14_" class="st1 shadow" d="M36.8 29.5c-1 0-2 .7-2.9 2.1s-1.4 2.6-1.4 3.7c0 .5.2.7.5.7.4 0 .8-.2 1.4-.7s1-1.1 1.4-1.7c.9-1.5 1.6-2.6 2-3.3-.1-.5-.5-.8-1-.8z"/><path id="XMLID_8_" class="st1 shadow" d="M32 6.3C17.8 6.3 6.3 17.8 6.3 32S17.8 57.7 32 57.7 57.7 46.2 57.7 32 46.2 6.3 32 6.3zM14.5 39.4c-.3-.1-.6-.3-.8-.4-.4-.3-.6-.7-.6-1.3s.2-1.5.6-2.8c.4-1.2.6-2.1.6-2.7s-.2-.9-.5-1.2c-.3-.3-.6-.5-.9-.6-.3-.1-.6-.1-1-.1l.2-.7c1.2-.1 1.9-.2 2.1-.3.2-.1.4-.3.6-.5.5-.4 1-1.3 1.3-2.8.1-.6.2-1 .3-1.3.1-.3.3-.7.7-1.1.4-.4.8-.7 1.2-1 .5-.2.8-.3 1.1-.4.7-.3 1.6-.3 2.9-.3h.7l-.2.6c-1.3 0-2.3.2-2.9.7-.3.2-.5.5-.7.8-.2.4-.4.7-.4 1-.1.3-.2.7-.3 1.1s-.2.8-.3 1.1c-.3.8-.9 1.4-1.8 2-.9.6-1.8.8-2.7.9.7 0 1.3.2 1.9.7.6.4.9.9.9 1.5s-.2 1.4-.5 2.5-.5 1.9-.5 2.5c0 1.1.8 1.6 2.4 1.6h.9l-.3.7h-1.2c-1.6 0-2.5-.1-2.8-.2zm14-7.5c-.9 2.7-1.7 4.5-2.2 5.5-.5 1-1 1.9-1.5 2.6-.5.7-.9 1.3-1.4 1.8-1 1.1-2.1 1.6-3.2 1.6-.7 0-1.3-.2-1.6-.5-.4-.3-.5-.7-.5-1.2s.1-.8.3-1.1c.2-.3.4-.4.7-.4.2 0 .4.1.5.2.1.1.2.2.2.4 0 .1-.1.3-.2.6-.2.3-.2.5-.2.7s.1.4.2.5c.1.1.3.2.6.2s.6-.1 1-.4c.4-.3.7-.6 1.1-1.1 1.3-1.9 3-5.2 5.1-11.2h-.6c-.8 0-1.3.2-1.5.7-1.1 2.1-1.7 3.2-1.9 3.2-.1 0-.1-.1-.1-.4 0-.2 0-.5.1-.6.7-1.3 1.3-2.5 1.7-3.6.1-.2.1-.2.2-.3.1-.1.2 0 .4 0h.2l2 .1c.1-.2.2-.7.5-1.3.2-.6.4-1.1.5-1.4.1-.3.3-.8.5-1.3s.5-1 .7-1.3c.2-.3.5-.7.8-1.1.3-.4.6-.7.9-.9.8-.5 1.6-.8 2.5-.8 1.6 0 2.3.6 2.3 1.7 0 .4-.1.8-.4 1.2-.2.3-.6.5-1 .5-.2 0-.4-.1-.5-.2s-.2-.2-.2-.4c0-.1.1-.4.3-.7s.3-.6.3-.8c0-.2-.1-.4-.3-.6-.2-.1-.4-.2-.7-.2-.4 0-.9.2-1.4.7-.4.5-.9 1.1-1.2 1.9-.7 1.4-1.3 2.8-1.8 4.4v.2c0 .1-.1.2-.1.3 2.4 0 3.7-.1 4.1-.3-.2.5-.6.8-1.3.9-.6.2-1.7.2-3.1.3l-.8 1.9zm8.8 6c-.8 0-1.2-.6-1.2-1.9 0-.9.2-1.8.5-2.7-1.7 3-3.3 4.5-4.7 4.5-1 0-1.5-.7-1.5-2.1 0-1 .2-2.1.7-3.2.5-1.1 1.1-2 2-2.8s1.8-1.1 2.8-1.1c.5 0 .9.1 1.3.3.4.2.7.6.8 1 .2-.3.4-.6.8-.9.3-.3.7-.3 1-.3l1.1.1h.1c-.5 0-1.1 1.3-1.8 3s-1.1 2.8-1.1 3.5c0 .4.1.6.4.6.9 0 2-1.3 3.3-3.9.1.1.2 0 .2 0 .1 0 .1.1.1.4 0 .3-.1.5-.2.8-1.8 3.2-3.3 4.7-4.6 4.7zM49.2 32c-.2.1-.4.3-.6.5-.5.4-1 1.4-1.3 2.8-.1.6-.2 1-.3 1.3-.1.3-.3.7-.7 1.1-.4.4-.8.7-1.3 1-.5.2-.8.4-1.1.5s-.6.2-1.1.3c-.5.1-1 .1-1.3.1h-1l.2-.7c1.3 0 2.3-.2 2.9-.7.3-.2.5-.5.7-.9.2-.4.4-.7.4-1 .1-.3.2-.7.3-1.1.1-.5.2-.8.3-1.1.3-.8.9-1.4 1.7-2 .9-.6 1.8-.8 2.7-.9-.7 0-1.3-.2-1.9-.7-.6-.4-.9-.9-.9-1.5s.2-1.4.5-2.5.5-1.9.5-2.5c0-1.1-.8-1.6-2.4-1.6h-.9l.3-.7h1.2c1.5 0 2.4.1 2.7.2s.6.3.8.4c.4.3.6.7.6 1.3 0 .6-.2 1.5-.6 2.8-.4 1.2-.6 2.1-.6 2.7 0 .5.1.9.5 1.2.3.3.6.5.9.6s.6.1 1 .1l-.2.7c-1.1.1-1.8.2-2 .3z"/></g></g></svg>