<?xml version="1.0" encoding="utf-8"?><svg width="120" height="96" viewBox="0 0 120 96" xmlns="http://www.w3.org/2000/svg" xmlns:xlink="http://www.w3.org/1999/xlink"><svg id="Brush" width="32" height="32" viewBox="-13.5 26.8 48.7 48.3"><style>.ast0{fill:#fff}</style><g id="aXMLID_1_"><path id="aXMLID_3_" class="ast0" d="M6 54.7c.7 1.3 1.6 2.4 2.8 3.3s2.5 1.6 3.9 2v1.9c.1 3.8-1 6.8-3.4 9.1S4 74.5.2 74.5c-2.2 0-4-.4-5.7-1.2s-3-2-4-3.4-1.8-3-2.3-4.8c-.5-1.8-.8-3.7-.8-5.7.1.1.5.4 1 .7.6.5 1.1.8 1.6 1.1.5.4 1 .7 1.5.9.6.3.9.5 1.2.5.8 0 1.2-.3 1.4-.9.5-1.1.9-2.2 1.5-2.9.6-.8 1.2-1.5 1.8-2 .7-.5 1.4-.9 2.3-1.2.8-.3 1.8-.6 2.7-.7 1.3-.1 2.4-.2 3.6-.2zm23.8-27.1c1.2 0 2.3.4 3.2 1.2s1.4 1.8 1.4 3.1c0 1.1-.4 2.4-1.2 3.9-5.8 11-9.8 17.5-12.2 19.7-1.7 1.6-3.6 2.3-5.7 2.3s-4.1-.8-5.6-2.4c-1.5-1.6-2.3-3.6-2.3-5.7 0-2.3.8-4.1 2.4-5.5L26.5 29c1-1 2.1-1.4 3.3-1.4z"/></g></svg><svg id="Codepen" width="32" height="32" viewBox="-9.2 31.5 40 39.2" x="32"><style>.bst0{fill:#fff}</style><g id="bXMLID_1_"><path id="bXMLID_2_" class="bst0" d="M29.8 45.5v11.4c0 .6-.3 1-.8 1.3L11.9 69.7c-.3.2-.6.3-.9.3-.4 0-.6-.1-.9-.3L-7 58.2c-.5-.3-.8-.8-.8-1.3V45.5c0-.6.3-1 .8-1.3l17.1-11.4c.3-.2.6-.3.9-.3.4 0 .6.1.9.3l17.2 11.4c.4.2.7.7.7 1.3zm-34.4 8.3l4-2.7-4-2.7v5.4zm7-4.6l7-4.7V37l-12.7 8.4 5.7 3.8zm-5.7 7.7l12.7 8.4v-7.5l-7-4.7-5.7 3.8zm14.3-2l5.7-3.8-5.7-3.8-5.7 3.8 5.7 3.8zm8.6-5.7l5.6-3.8L12.6 37v7.5l7 4.7zm-7 16.1l12.7-8.4-5.6-3.8-7 4.7v7.5zm9.9-14.1l4 2.7v-5.4l-4 2.7z"/></g></svg><svg id="Github" width="32" height="32" viewBox="-6.3 33.8 34.5 34.2" y="32"><style>.cst0{fill:#fff}</style><g id="cXMLID_1_"><path id="cXMLID_2_" class="cst0" d="M2.9 37.5c2.4-1.4 5.2-2.2 8.1-2.2s5.6.8 8.1 2.2 4.4 3.4 5.8 5.8c1.4 2.4 2.2 5.2 2.2 8.1 0 3.5-1 6.7-3.1 9.5s-4.7 4.7-7.9 5.8c-.4.1-.7 0-.8-.2s-.3-.4-.3-.7v-1.6-2.8c0-1.3-.4-2.3-1.1-3 .7-.1 1.5-.2 2.2-.4s1.3-.5 2-.8c.7-.4 1.2-.8 1.7-1.4.5-.6.8-1.3 1.1-2.2.3-.9.5-2 .5-3.2 0-1.7-.6-3.1-1.7-4.3.5-1.3.5-2.7-.2-4.3-.4-.1-.9-.1-1.7.2-.7.3-1.4.6-2 .9l-.7.5c-1.3-.4-2.6-.6-4-.6s-2.7.2-4 .6c-.4-.2-.8-.4-1.1-.6-.4-.2-.9-.5-1.8-.8-.7-.3-1.4-.4-1.8-.3-.7 1.6-.7 3-.2 4.3C1.1 47.2.5 48.6.5 50.3c0 1.2.2 2.3.5 3.1.3.9.7 1.6 1.1 2.2s1 1 1.7 1.4 1.3.7 2 .8c.7.2 1.4.3 2.2.4-.6.5-.8 1.2-1 2.2-.3.1-.6.3-.9.3-.4.1-.7.1-1.2.1s-.9-.2-1.4-.5-.9-.8-1.2-1.3c-.3-.5-.6-.8-1-1.1-.4-.3-.7-.5-1-.5l-.4-.1c-.3 0-.5 0-.6.1-.1.1-.2.2-.1.3.1.1.1.2.2.3l.3.3.2.1c.3.1.7.4.9.7.3.4.6.8.7 1l.2.5c.2.6.5.9.9 1.3.4.3.9.5 1.4.6.5.1 1 .1 1.5.2.5 0 .8 0 1.1-.1l.5-.1v3c0 .3-.1.5-.3.7-.2.2-.5.2-.8.2-3.3-1-5.9-3-7.9-5.8C-4 57.7-5 54.7-5 51.1c0-2.9.8-5.6 2.2-8.1 1.3-2.1 3.3-4.1 5.7-5.5zM1.1 58.4c0-.1 0-.2-.2-.3H.6c0 .1 0 .2.2.3.1.1.2.1.3 0zm.5.8c.1-.1.1-.2 0-.4-.1-.1-.3-.2-.4-.1-.1.1-.1.2 0 .4.2.1.4.1.4.1zm.7.9c.1-.1.1-.2 0-.4s-.2-.2-.4-.1c-.1.1-.1.2 0 .4s.3.1.4.1zm.9.8c.1-.1.1-.3-.1-.4-.2-.2-.3-.2-.4-.1-.1.1-.1.3.1.4.1.2.2.2.4.1zm1.1.6c0-.2-.1-.3-.3-.4-.2-.1-.4 0-.4.2s0 .3.3.3c.3.1.4 0 .4-.1zm1.4.1c0-.2-.1-.3-.4-.2-.2 0-.4.1-.4.2 0 .2.1.3.4.2.3 0 .4-.1.4-.2zm1.2-.3c0-.2-.2-.2-.4-.2s-.3.2-.3.3c0 .2.2.2.4.2.3 0 .4-.1.3-.3z"/></g></svg><svg id="Tool" width="32" height="32" viewBox="-11.7 28.8 44.7 44.5" x="32" y="32"><style>.dst0{fill:#fff}</style><g id="dXMLID_1_"><path id="dXMLID_3_" class="dst0" d="M-10.8 59.7c0-.7.2-1.6.6-2.8.8-2.3 2.3-4.2 4.3-5.7C-3.8 49.7-1.6 49 .9 49c3.2 0 6 1.1 8.3 3.5 2.3 2.3 3.5 5.1 3.5 8.3s-1.1 6-3.5 8.2c-2.3 2.3-5.1 3.5-8.3 3.5-1 0-2.1-.2-3.2-.5s-2.1-.7-2.8-1.2c-.3-.2-.4-.5-.4-.8 0-.3.1-.6.4-.7l7.7-4.4V59l-5.1-2.8c-.1.1-.7.5-2.1 1.3-1.3.7-2.4 1.5-3.5 2.1-1 .7-1.7.9-1.9.9-.3 0-.5-.1-.7-.3 0 0-.1-.2-.1-.5zM5.8 48.3l17.8-17.8c.7-.7 1.4-.9 2.3-.9s1.7.3 2.3.9l2.8 2.8c.7.7 1 1.4 1 2.3s-.4 1.7-1 2.3L13.3 55.8c-.7-1.7-1.7-3.2-3-4.5-1.2-1.3-2.7-2.3-4.5-3zm17.4-12.1c-.4.4-.5.8-.5 1.2s.2.8.5 1.2c.4.4.7.5 1.2.5s.8-.2 1.2-.5c.4-.4.5-.8.5-1.2s-.2-.8-.5-1.2c-.4-.4-.8-.5-1.2-.5-.5-.1-.8.1-1.2.5z"/></g></svg><svg id="bug" viewBox="0 0 23.4 23.2" width="23.4" height="23.2" x="96"><style>.est0{fill:#fff}</style><g id="eXMLID_54_"><path id="eXMLID_55_" class="est0" d="M22.3 12.4c.2.2.3.4.3.6 0 .2-.1.4-.3.6s-.4.3-.6.3h-3c0 1.5-.3 2.8-.9 3.9l2.8 2.8c.2.2.3.4.3.6s-.1.4-.3.6c-.2.2-.4.3-.6.3-.2 0-.4-.1-.6-.3l-2.7-2.7-.2.2c-.1.1-.3.2-.6.4s-.6.3-.9.5c-.3.1-.7.3-1.1.4-.4.1-.9.2-1.3.2V8.7h-1.7v12.1c-.5 0-.9-.1-1.4-.2-.5-.1-.8-.3-1.2-.4-.3-.2-.6-.4-.9-.5-.3-.2-.5-.3-.6-.4l-.1-.3-2.5 2.8c-.2.2-.4.3-.6.3-.2 0-.4-.1-.6-.2-.2-.2-.3-.4-.3-.6 0-.2.1-.4.2-.6l2.7-3.1c-.5-1-.8-2.3-.8-3.7h-3c-.2 0-.4-.1-.6-.3-.1-.1-.2-.3-.2-.6 0-.2.1-.4.3-.6.2-.2.4-.3.6-.3h3v-4L2.6 5.9c-.2-.2-.3-.4-.3-.6 0-.2.1-.4.3-.6.2-.2.4-.3.6-.3s.4.1.6.3L6.1 7h11.4l2.3-2.3c.2-.2.4-.3.6-.3s.4.1.6.3c.2.2.3.4.3.6 0 .2-.1.4-.3.6l-2.3 2.3v4h3c.2 0 .4.1.6.2zm-6.2-7.1H7.5c0-1.2.4-2.2 1.3-3.1.8-.8 1.8-1.2 3-1.2s2.2.4 3 1.2c.9.9 1.3 1.9 1.3 3.1z"/></g></svg><svg id="code" viewBox="0 0 34.1 29.7" width="32" height="27.87" x="64"><style>.fst0{fill:#fff}</style><g id="fXMLID_1_"><g id="fXMLID_8_"><path id="fXMLID_9_" class="fst0" d="M33.3 3.8v18.4a2.732 2.732 0 0 1-2.7 2.7h-9.2c0 .4.1.9.3 1.3.2.5.4.9.5 1.2.2.3.3.6.3.7 0 .3-.1.5-.3.8-.2.2-.5.3-.8.3h-8.7c-.3 0-.5-.1-.8-.3-.2-.2-.3-.5-.3-.8 0-.2.1-.4.3-.7.2-.3.4-.7.5-1.2.2-.5.3-.9.3-1.3H3.5a2.732 2.732 0 0 1-2.7-2.7V3.8a2.732 2.732 0 0 1 2.7-2.7h27.1c.7 0 1.4.3 1.9.8s.8 1.1.8 1.9zm-2.2 14.1V3.8c0-.1-.1-.3-.2-.4-.1-.1-.2-.2-.4-.2h-27c-.1 0-.3.1-.4.2-.1.1-.1.2-.1.4v14.1c0 .1 0 .2.1.3.1.1.2.2.4.2h27.1c.1 0 .3-.1.4-.2.1-.1.1-.2.1-.3z"/></g><g id="fXMLID_2_"><path id="fXMLID_4_" class="fst0" d="M14.1 14.6l-.5.4c-.1.1-.1.1-.2.1s-.1 0-.2-.1l-4-4c-.1-.1-.1-.1-.1-.2s0-.1.1-.2l4-4c.1-.1.1-.1.2-.1s.1 0 .2.1l.5.4c.1.1.1.1.1.2s0 .1-.1.2l-3.4 3.4 3.4 3.4c.1.1.1.1.1.2s-.1.2-.1.2zm5.1-9.2L16 16.5c0 .1-.1.1-.1.2s-.1 0-.2 0l-.5-.1c-.1 0-.1-.1-.2-.1v-.2l3.2-11.1c0-.1.1-.1.1-.2h.2l.5.1c.1 0 .1.1.2.1v.2zm5.6 5.6l-4 4c-.1.1-.1.1-.2.1s-.1 0-.2-.1l-.4-.4c-.1-.1-.1-.1-.1-.2s0-.1.1-.2l3.4-3.4L20 7.4c-.1-.1-.1-.1-.1-.2s0-.1.1-.2l.4-.4c.1-.1.1-.1.2-.1s.1 0 .2.1l4 4c.1.1.1.1.1.2s0 .2-.1.2z"/></g></g></svg><svg id="facebook" width="32" height="32" viewBox="0.5 31.5 21.8 37" x="64" y="27.87"><style>.gst0{fill:#fff}</style><g id="gXMLID_1_"><path id="gXMLID_3_" class="gst0" d="M20.8 33v5.5h-3.3c-1.2 0-2 .3-2.4.8s-.7 1.2-.7 2.3v3.9h6.1l-.8 6.2h-5.3v15.8H7.9V51.7H2.6v-6.2h5.3v-4.6c0-2.6.7-4.6 2.2-6s3.4-2.2 5.8-2.2c2.1 0 3.7.1 4.9.3z"/></g></svg><svg id="linkedin" width="32" height="32" viewBox="-6.7 34.7 35.3 33" y="64"><style>.hst0{fill:#fff}</style><g id="hXMLID_1_"><path id="hXMLID_2_" class="hst0" d="M2.7 39.2c0 1-.4 1.9-1 2.5-.7.7-1.7 1-2.8 1-1.1 0-2.1-.4-2.7-1-.7-.7-1-1.5-1-2.5s.4-1.9 1-2.5 1.7-1 2.8-1 2.1.4 2.8 1 .9 1.5.9 2.5zm-.5 6.5v20.7h-6.9V45.7h6.9zM27 54.5v11.9h-6.8V55.3c0-1.5-.3-2.6-.8-3.5-.6-.8-1.4-1.2-2.6-1.2-.8 0-1.6.3-2.3.8-.6.5-1 1-1.3 1.8-.2.3-.2.9-.2 1.6v11.5H6.1V52.8v-7.2H13v3c.3-.5.6-.8.8-1.2.3-.4.7-.7 1.2-1.1.5-.4 1.1-.7 1.8-.9.7-.2 1.5-.3 2.4-.3 2.3 0 4.3.7 5.7 2.3 1.5 1.7 2.1 4 2.1 7.1z"/></g></svg><svg id="psd2html" viewBox="0 0 46.2 53.2" width="27.79" height="32" x="32" y="64"><style>.ist0{fill:#fff}</style><g id="iXMLID_14_"><path id="iXMLID_72_" class="ist0" d="M42.8 12c.5.5 1 1.2 1.3 2.1.4.9.6 1.7.6 2.5v32.2a2.732 2.732 0 0 1-2.7 2.7H4.4a2.732 2.732 0 0 1-2.7-2.7V4c0-.7.3-1.4.8-1.9s1.2-.7 1.9-.7h25.1c.7 0 1.6.2 2.5.6.9.4 1.6.8 2.1 1.3l8.7 8.7zm-1.7 35.9V19.3H29.5a2.732 2.732 0 0 1-2.7-2.7V4.9H5.3v43h35.8zM30.4 5.2v10.5h10.5c-.2-.5-.4-.9-.6-1.1l-8.8-8.8c-.2-.3-.6-.5-1.1-.6z"/></g><g id="iXMLID_3_"><path id="iXMLID_4_" class="ist0" d="M7 7.7c.5-.1 1.2-.2 2-.2 1 0 1.8.2 2.3.7.4.4.7 1 .7 1.7s-.2 1.3-.6 1.7c-.6.6-1.5.9-2.5.9-.3 0-.6 0-.8-.1v3.2H7V7.7zm1.1 3.9c.2.1.5.1.9.1 1.3 0 2-.6 2-1.7s-.8-1.6-1.9-1.6c-.5 0-.8 0-1 .1v3.1z"/><path id="iXMLID_7_" class="ist0" d="M13.3 14.4c.5.3 1.2.5 1.9.5 1.1 0 1.7-.6 1.7-1.4 0-.8-.4-1.2-1.5-1.6-1.3-.5-2.1-1.2-2.1-2.3 0-1.3 1-2.2 2.6-2.2.8 0 1.4.2 1.8.4l-.3.9c-.3-.1-.8-.4-1.5-.4-1.1 0-1.5.7-1.5 1.2 0 .8.5 1.1 1.6 1.6 1.4.5 2.1 1.2 2.1 2.4s-.9 2.3-2.8 2.3c-.8 0-1.6-.2-2.1-.5l.1-.9z"/><path id="iXMLID_9_" class="ist0" d="M19.3 7.7c.6-.1 1.4-.2 2.2-.2 1.5 0 2.6.3 3.3 1 .7.7 1.1 1.6 1.1 2.9 0 1.3-.4 2.4-1.2 3.1-.8.8-2 1.2-3.6 1.2-.7 0-1.4 0-1.9-.1V7.7zm1.1 7.2c.3 0 .6.1 1.1.1 2.2 0 3.4-1.2 3.4-3.4 0-1.9-1.1-3.1-3.3-3.1-.5 0-.9 0-1.2.1v6.3z"/></g><g id="iXMLID_65_"><path id="iXMLID_66_" class="ist0" d="M19.2 19.2c0 .1 0 .1-.1.2L16 22.5s-.1.1-.2.1-.1 0-.2-.1l-3.1-3.1s-.1-.1-.1-.2 0-.1.1-.2l.3-.3s.1-.1.2-.1.1 0 .2.1l2.6 2.6 2.6-2.6s.1-.1.2-.1.1 0 .2.1l.3.3c.1.1.1.1.1.2zm0 2.6c0 .1 0 .1-.1.2L16 25s-.1.1-.2.1-.1 0-.2-.1l-3.1-3.1s-.1-.1-.1-.2 0-.1.1-.2l.3-.3s.1-.1.2-.1.1 0 .2.1l2.6 2.6 2.6-2.6s.1-.1.2-.1.1 0 .2.1l.3.3c.1.2.1.2.1.3z"/></g><g id="iXMLID_12_"><path id="iXMLID_69_" class="ist0" d="M21.3 24.9h17.5l-1.6 17.8-7.2 2-7.1-2-1.6-17.8zm14 5.8l.2-2.2h-11l.6 6.6h7.6l-.3 2.9-2.4.7-2.5-.7-.2-1.7h-2.2l.3 3.4 4.5 1.2h.1l4.5-1.2.6-6.7h-8l-.2-2.2h8.4z"/></g></svg><svg id="twitter" width="32" height="32" viewBox="-6.5 36.7 34.7 28.3" x="59.79" y="64"><style>.jst0{fill:#fff}</style><g id="jXMLID_1_"><path id="jXMLID_2_" class="jst0" d="M27.5 40.8c-.9 1.4-2.1 2.5-3.4 3.5v.8c0 1.8-.3 3.7-.8 5.4-.6 1.8-1.3 3.6-2.4 5.2-1.1 1.7-2.3 3.1-3.8 4.4-1.5 1.3-3.3 2.3-5.4 3.1-2.1.8-4.4 1.1-6.8 1.1-3.8 0-7.2-1-10.4-3 .5.1 1 .1 1.6.1 3.1 0 5.9-.9 8.4-2.9-1.5 0-2.8-.5-3.9-1.3s-2-2-2.3-3.4c.5.1.8.1 1.3.1.6 0 1.2-.1 1.8-.2-1.6-.3-2.8-1.1-3.8-2.3S-4 48.8-4 47.1V47c.9.6 2 .8 3.1.8-.9-.7-1.7-1.4-2.2-2.4-.6-1-.8-2.1-.8-3.2 0-1.2.3-2.3.9-3.4 1.7 2.1 3.8 3.8 6.2 5s5 2 7.8 2.1c-.1-.6-.2-1-.2-1.6 0-1.9.7-3.5 2-4.8s2.9-2 4.8-2c2 0 3.6.8 5 2.2 1.5-.3 2.9-.8 4.3-1.6-.6 1.6-1.5 2.8-3 3.8 1-.2 2.3-.6 3.6-1.1z"/></g></svg></svg>