<?xml version="1.0" encoding="utf-8"?>
<!-- Generator: Adobe Illustrator 19.0.0, SVG Export Plug-In . SVG Version: 6.00 Build 0)  -->
<svg version="1.1" id="Layer_1" xmlns="http://www.w3.org/2000/svg" xmlns:xlink="http://www.w3.org/1999/xlink" x="0px" y="0px"
	width="60px" height="60px" viewBox="-13.5 26.8 48.7 48.3" style="enable-background:new -13.5 26.8 48.7 48.3;" xml:space="preserve">
<style type="text/css">
	.st0{fill:#FFF;}
</style>
<g id="XMLID_1_">
	<path id="XMLID_3_" class="st0" d="M6,54.7C6.7,56,7.6,57.1,8.8,58s2.5,1.6,3.9,2v1.9c0.1,3.8-1,6.8-3.4,9.1s-5.3,3.5-9.1,3.5
		c-2.2,0-4-0.4-5.7-1.2s-3-2-4-3.4s-1.8-3-2.3-4.8c-0.5-1.8-0.8-3.7-0.8-5.7c0.1,0.1,0.5,0.4,1,0.7c0.6,0.5,1.1,0.8,1.6,1.1
		c0.5,0.4,1,0.7,1.5,0.9c0.6,0.3,0.9,0.5,1.2,0.5c0.8,0,1.2-0.3,1.4-0.9c0.5-1.1,0.9-2.2,1.5-2.9c0.6-0.8,1.2-1.5,1.8-2
		c0.7-0.5,1.4-0.9,2.3-1.2c0.8-0.3,1.8-0.6,2.7-0.7C3.7,54.8,4.8,54.7,6,54.7z M29.8,27.6c1.2,0,2.3,0.4,3.2,1.2s1.4,1.8,1.4,3.1
		c0,1.1-0.4,2.4-1.2,3.9c-5.8,11-9.8,17.5-12.2,19.7c-1.7,1.6-3.6,2.3-5.7,2.3s-4.1-0.8-5.6-2.4c-1.5-1.6-2.3-3.6-2.3-5.7
		c0-2.3,0.8-4.1,2.4-5.5L26.5,29C27.5,28,28.6,27.6,29.8,27.6z"/>
</g>
</svg>
