<?xml version="1.0" encoding="utf-8"?>
<!-- Generator: Adobe Illustrator 19.0.0, SVG Export Plug-In . SVG Version: 6.00 Build 0)  -->
<svg version="1.1" id="Layer_1" xmlns="http://www.w3.org/2000/svg" xmlns:xlink="http://www.w3.org/1999/xlink" x="0px" y="0px"
	 viewBox="0 0 23.4 23.2" style="enable-background:new 0 0 23.4 23.2;" xml:space="preserve">
<style type="text/css">
	.st0{fill:#FFFFFF;}
</style>
<g id="XMLID_54_">
	<path id="XMLID_55_" class="st0" d="M22.3,12.4c0.2,0.2,0.3,0.4,0.3,0.6c0,0.2-0.1,0.4-0.3,0.6s-0.4,0.3-0.6,0.3h-3
		c0,1.5-0.3,2.8-0.9,3.9l2.8,2.8c0.2,0.2,0.3,0.4,0.3,0.6s-0.1,0.4-0.3,0.6c-0.2,0.2-0.4,0.3-0.6,0.3c-0.2,0-0.4-0.1-0.6-0.3
		l-2.7-2.7c0,0-0.1,0.1-0.2,0.2c-0.1,0.1-0.3,0.2-0.6,0.4c-0.3,0.2-0.6,0.3-0.9,0.5c-0.3,0.1-0.7,0.3-1.1,0.4
		c-0.4,0.1-0.9,0.2-1.3,0.2V8.7h-1.7v12.1c-0.5,0-0.9-0.1-1.4-0.2c-0.5-0.1-0.8-0.3-1.2-0.4c-0.3-0.2-0.6-0.4-0.9-0.5
		c-0.3-0.2-0.5-0.3-0.6-0.4L6.7,19l-2.5,2.8c-0.2,0.2-0.4,0.3-0.6,0.3c-0.2,0-0.4-0.1-0.6-0.2c-0.2-0.2-0.3-0.4-0.3-0.6
		c0-0.2,0.1-0.4,0.2-0.6l2.7-3.1c-0.5-1-0.8-2.3-0.8-3.7h-3c-0.2,0-0.4-0.1-0.6-0.3C1.1,13.5,1,13.3,1,13c0-0.2,0.1-0.4,0.3-0.6
		c0.2-0.2,0.4-0.3,0.6-0.3h3v-4L2.6,5.9C2.4,5.7,2.3,5.5,2.3,5.3c0-0.2,0.1-0.4,0.3-0.6c0.2-0.2,0.4-0.3,0.6-0.3s0.4,0.1,0.6,0.3
		L6.1,7h11.4l2.3-2.3c0.2-0.2,0.4-0.3,0.6-0.3s0.4,0.1,0.6,0.3c0.2,0.2,0.3,0.4,0.3,0.6c0,0.2-0.1,0.4-0.3,0.6l-2.3,2.3v4h3
		C21.9,12.2,22.1,12.3,22.3,12.4z M16.1,5.3H7.5c0-1.2,0.4-2.2,1.3-3.1C9.6,1.4,10.6,1,11.8,1C13,1,14,1.4,14.8,2.2
		C15.7,3.1,16.1,4.1,16.1,5.3z"/>
</g>
</svg>
