<?xml version="1.0" encoding="utf-8"?>
<!-- Generator: Adobe Illustrator 19.0.0, SVG Export Plug-In . SVG Version: 6.00 Build 0)  -->
<svg version="1.1" id="Layer_1" xmlns="http://www.w3.org/2000/svg" xmlns:xlink="http://www.w3.org/1999/xlink" x="0px" y="0px"
	width="60px" height="60px" viewBox="-9.2 31.5 40 39.2" style="enable-background:new -9.2 31.5 40 39.2;" xml:space="preserve">
<style type="text/css">
	.st0{fill:#FFF;}
</style>
<g id="XMLID_1_">
	<path id="XMLID_2_" class="st0" d="M29.8,45.5v11.4c0,0.6-0.3,1-0.8,1.3L11.9,69.7c-0.3,0.2-0.6,0.3-0.9,0.3
		c-0.4,0-0.6-0.1-0.9-0.3L-7,58.2c-0.5-0.3-0.8-0.8-0.8-1.3V45.5c0-0.6,0.3-1,0.8-1.3l17.1-11.4c0.3-0.2,0.6-0.3,0.9-0.3
		c0.4,0,0.6,0.1,0.9,0.3l17.2,11.4C29.5,44.4,29.8,44.9,29.8,45.5z M-4.6,53.8l4-2.7l-4-2.7C-4.6,48.4-4.6,53.8-4.6,53.8z M2.4,49.2
		l7-4.7V37l-12.7,8.4L2.4,49.2z M-3.3,56.9l12.7,8.4v-7.5l-7-4.7L-3.3,56.9z M11,54.9l5.7-3.8L11,47.3l-5.7,3.8L11,54.9z M19.6,49.2
		l5.6-3.8L12.6,37v7.5L19.6,49.2z M12.6,65.3l12.7-8.4l-5.6-3.8l-7,4.7V65.3z M22.5,51.2l4,2.7v-5.4L22.5,51.2z"/>
</g>
</svg>
