<?xml version="1.0" encoding="utf-8"?>
<!-- Generator: Adobe Illustrator 19.0.0, SVG Export Plug-In . SVG Version: 6.00 Build 0)  -->
<svg version="1.1" id="Layer_1" xmlns="http://www.w3.org/2000/svg" xmlns:xlink="http://www.w3.org/1999/xlink" x="0px" y="0px"
	 viewBox="0 0 34.1 29.7" style="enable-background:new 0 0 34.1 29.7;" xml:space="preserve">
<style type="text/css">
	.st0{fill:#FFFFFF;}
</style>
<g id="XMLID_1_">
	<g id="XMLID_8_">
		<path id="XMLID_9_" class="st0" d="M33.3,3.8v18.4c0,0.7-0.3,1.4-0.8,1.9s-1.2,0.8-1.9,0.8h-9.2c0,0.4,0.1,0.9,0.3,1.3
			c0.2,0.5,0.4,0.9,0.5,1.2c0.2,0.3,0.3,0.6,0.3,0.7c0,0.3-0.1,0.5-0.3,0.8c-0.2,0.2-0.5,0.3-0.8,0.3h-8.7c-0.3,0-0.5-0.1-0.8-0.3
			c-0.2-0.2-0.3-0.5-0.3-0.8c0-0.2,0.1-0.4,0.3-0.7c0.2-0.3,0.4-0.7,0.5-1.2c0.2-0.5,0.3-0.9,0.3-1.3H3.5c-0.7,0-1.4-0.3-1.9-0.8
			c-0.5-0.5-0.8-1.2-0.8-1.9V3.8c0-0.7,0.3-1.4,0.8-1.9c0.5-0.5,1.2-0.8,1.9-0.8h27.1c0.7,0,1.4,0.3,1.9,0.8C33,2.4,33.3,3,33.3,3.8
			z M31.1,17.9V3.8c0-0.1-0.1-0.3-0.2-0.4c-0.1-0.1-0.2-0.2-0.4-0.2H3.5c-0.1,0-0.3,0.1-0.4,0.2C3,3.5,3,3.6,3,3.8v14.1
			C3,18,3,18.1,3.1,18.2c0.1,0.1,0.2,0.2,0.4,0.2h27.1c0.1,0,0.3-0.1,0.4-0.2C31.1,18.1,31.1,18,31.1,17.9z"/>
	</g>
	<g id="XMLID_2_">
		<path id="XMLID_4_" class="st0" d="M14.1,14.6L13.6,15c-0.1,0.1-0.1,0.1-0.2,0.1c-0.1,0-0.1,0-0.2-0.1l-4-4
			c-0.1-0.1-0.1-0.1-0.1-0.2s0-0.1,0.1-0.2l4-4c0.1-0.1,0.1-0.1,0.2-0.1c0.1,0,0.1,0,0.2,0.1L14.1,7c0.1,0.1,0.1,0.1,0.1,0.2
			c0,0.1,0,0.1-0.1,0.2l-3.4,3.4l3.4,3.4c0.1,0.1,0.1,0.1,0.1,0.2C14.2,14.5,14.1,14.6,14.1,14.6z M19.2,5.4l-3.2,11.1
			c0,0.1-0.1,0.1-0.1,0.2s-0.1,0-0.2,0l-0.5-0.1c-0.1,0-0.1-0.1-0.2-0.1c0-0.1,0-0.1,0-0.2l3.2-11.1c0-0.1,0.1-0.1,0.1-0.2
			c0.1,0,0.1,0,0.2,0L19,5.1c0.1,0,0.1,0.1,0.2,0.1C19.2,5.3,19.2,5.3,19.2,5.4z M24.8,11l-4,4c-0.1,0.1-0.1,0.1-0.2,0.1
			c-0.1,0-0.1,0-0.2-0.1L20,14.6c-0.1-0.1-0.1-0.1-0.1-0.2c0-0.1,0-0.1,0.1-0.2l3.4-3.4L20,7.4c-0.1-0.1-0.1-0.1-0.1-0.2
			c0-0.1,0-0.1,0.1-0.2l0.4-0.4c0.1-0.1,0.1-0.1,0.2-0.1c0.1,0,0.1,0,0.2,0.1l4,4c0.1,0.1,0.1,0.1,0.1,0.2S24.9,11,24.8,11z"/>
	</g>
</g>
</svg>
