<?xml version="1.0" encoding="utf-8"?>
<!-- Generator: Adobe Illustrator 19.0.0, SVG Export Plug-In . SVG Version: 6.00 Build 0)  -->
<svg version="1.1" id="Layer_1" xmlns="http://www.w3.org/2000/svg" xmlns:xlink="http://www.w3.org/1999/xlink" x="0px" y="0px"
	 viewBox="0 0 64 64" style="enable-background:new 0 0 64 64;" xml:space="preserve">
<style type="text/css">
	.st0{fill-rule:evenodd;clip-rule:evenodd;fill:#FFFFFF;}
	.st1{fill:#FFFFFF;}
</style>
<g id="XMLID_3_">
	<path id="XMLID_15_" class="st0 shadow" d="M32,2.3C15.6,2.3,2.3,15.6,2.3,32S15.6,61.7,32,61.7S61.7,48.4,61.7,32S48.4,2.3,32,2.3z
		 M32,60C16.5,60,4,47.5,4,32C4,16.5,16.5,4,32,4s28,12.5,28,28C60,47.5,47.5,60,32,60z"/>
	<g id="XMLID_7_">
		<path id="XMLID_14_" class="st1 shadow" d="M36.8,29.5c-1,0-2,0.7-2.9,2.1s-1.4,2.6-1.4,3.7c0,0.5,0.2,0.7,0.5,0.7c0.4,0,0.8-0.2,1.4-0.7
			s1-1.1,1.4-1.7c0.9-1.5,1.6-2.6,2-3.3C37.7,29.8,37.3,29.5,36.8,29.5z"/>
		<path id="XMLID_8_" class="st1 shadow" d="M32,6.3C17.8,6.3,6.3,17.8,6.3,32c0,14.2,11.5,25.7,25.7,25.7S57.7,46.2,57.7,32
			C57.7,17.8,46.2,6.3,32,6.3z M14.5,39.4c-0.3-0.1-0.6-0.3-0.8-0.4c-0.4-0.3-0.6-0.7-0.6-1.3s0.2-1.5,0.6-2.8
			c0.4-1.2,0.6-2.1,0.6-2.7s-0.2-0.9-0.5-1.2c-0.3-0.3-0.6-0.5-0.9-0.6c-0.3-0.1-0.6-0.1-1-0.1l0.2-0.7c1.2-0.1,1.9-0.2,2.1-0.3
			c0.2-0.1,0.4-0.3,0.6-0.5c0.5-0.4,1-1.3,1.3-2.8c0.1-0.6,0.2-1,0.3-1.3c0.1-0.3,0.3-0.7,0.7-1.1c0.4-0.4,0.8-0.7,1.2-1
			c0.5-0.2,0.8-0.3,1.1-0.4c0.7-0.3,1.6-0.3,2.9-0.3H23l-0.2,0.6c-1.3,0-2.3,0.2-2.9,0.7c-0.3,0.2-0.5,0.5-0.7,0.8
			c-0.2,0.4-0.4,0.7-0.4,1c-0.1,0.3-0.2,0.7-0.3,1.1s-0.2,0.8-0.3,1.1c-0.3,0.8-0.9,1.4-1.8,2c-0.9,0.6-1.8,0.8-2.7,0.9
			c0.7,0,1.3,0.2,1.9,0.7c0.6,0.4,0.9,0.9,0.9,1.5c0,0.6-0.2,1.4-0.5,2.5c-0.3,1.1-0.5,1.9-0.5,2.5c0,1.1,0.8,1.6,2.4,1.6
			c0.1,0,0.3,0,0.5,0c0.2,0,0.3,0,0.4,0l-0.3,0.7l-1.2,0C15.7,39.6,14.8,39.5,14.5,39.4z M28.5,31.9c-0.9,2.7-1.7,4.5-2.2,5.5
			c-0.5,1-1,1.9-1.5,2.6c-0.5,0.7-0.9,1.3-1.4,1.8c-1,1.1-2.1,1.6-3.2,1.6c-0.7,0-1.3-0.2-1.6-0.5c-0.4-0.3-0.5-0.7-0.5-1.2
			s0.1-0.8,0.3-1.1c0.2-0.3,0.4-0.4,0.7-0.4c0.2,0,0.4,0.1,0.5,0.2c0.1,0.1,0.2,0.2,0.2,0.4c0,0.1-0.1,0.3-0.2,0.6
			c-0.2,0.3-0.2,0.5-0.2,0.7s0.1,0.4,0.2,0.5c0.1,0.1,0.3,0.2,0.6,0.2s0.6-0.1,1-0.4c0.4-0.3,0.7-0.6,1.1-1.1
			c1.3-1.9,3-5.2,5.1-11.2h-0.6c-0.8,0-1.3,0.2-1.5,0.7c-1.1,2.1-1.7,3.2-1.9,3.2c-0.1,0-0.1-0.1-0.1-0.4c0-0.2,0-0.5,0.1-0.6
			c0.7-1.3,1.3-2.5,1.7-3.6c0.1-0.2,0.1-0.2,0.2-0.3c0.1-0.1,0.2,0,0.4,0h0.2l2,0.1c0.1-0.2,0.2-0.7,0.5-1.3
			c0.2-0.6,0.4-1.1,0.5-1.4c0.1-0.3,0.3-0.8,0.5-1.3c0.2-0.5,0.5-1,0.7-1.3c0.2-0.3,0.5-0.7,0.8-1.1c0.3-0.4,0.6-0.7,0.9-0.9
			c0.8-0.5,1.6-0.8,2.5-0.8c1.6,0,2.3,0.6,2.3,1.7c0,0.4-0.1,0.8-0.4,1.2c-0.2,0.3-0.6,0.5-1,0.5c-0.2,0-0.4-0.1-0.5-0.2
			s-0.2-0.2-0.2-0.4c0-0.1,0.1-0.4,0.3-0.7s0.3-0.6,0.3-0.8c0-0.2-0.1-0.4-0.3-0.6c-0.2-0.1-0.4-0.2-0.7-0.2c-0.4,0-0.9,0.2-1.4,0.7
			c-0.4,0.5-0.9,1.1-1.2,1.9c-0.7,1.4-1.3,2.8-1.8,4.4c0,0.1,0,0.1,0,0.2c0,0.1-0.1,0.2-0.1,0.3c2.4,0,3.7-0.1,4.1-0.3
			c-0.2,0.5-0.6,0.8-1.3,0.9c-0.6,0.2-1.7,0.2-3.1,0.3L28.5,31.9z M37.3,37.9c-0.8,0-1.2-0.6-1.2-1.9c0-0.9,0.2-1.8,0.5-2.7
			c-1.7,3-3.3,4.5-4.7,4.5c-1,0-1.5-0.7-1.5-2.1c0-1,0.2-2.1,0.7-3.2c0.5-1.1,1.1-2,2-2.8s1.8-1.1,2.8-1.1c0.5,0,0.9,0.1,1.3,0.3
			c0.4,0.2,0.7,0.6,0.8,1c0.2-0.3,0.4-0.6,0.8-0.9c0.3-0.3,0.7-0.3,1-0.3l1.1,0.1H41c-0.5,0-1.1,1.3-1.8,3s-1.1,2.8-1.1,3.5
			c0,0.4,0.1,0.6,0.4,0.6c0.9,0,2-1.3,3.3-3.9C41.9,32.1,42,32,42,32c0.1,0,0.1,0.1,0.1,0.4c0,0.3-0.1,0.5-0.2,0.8
			C40.1,36.4,38.6,37.9,37.3,37.9z M49.2,32c-0.2,0.1-0.4,0.3-0.6,0.5c-0.5,0.4-1,1.4-1.3,2.8c-0.1,0.6-0.2,1-0.3,1.3
			c-0.1,0.3-0.3,0.7-0.7,1.1c-0.4,0.4-0.8,0.7-1.3,1c-0.5,0.2-0.8,0.4-1.1,0.5s-0.6,0.2-1.1,0.3c-0.5,0.1-1,0.1-1.3,0.1
			c-0.4,0-0.6,0-0.7,0c-0.1,0-0.2,0-0.3,0l0.2-0.7c1.3,0,2.3-0.2,2.9-0.7c0.3-0.2,0.5-0.5,0.7-0.9c0.2-0.4,0.4-0.7,0.4-1
			c0.1-0.3,0.2-0.7,0.3-1.1c0.1-0.5,0.2-0.8,0.3-1.1c0.3-0.8,0.9-1.4,1.7-2c0.9-0.6,1.8-0.8,2.7-0.9c-0.7,0-1.3-0.2-1.9-0.7
			c-0.6-0.4-0.9-0.9-0.9-1.5s0.2-1.4,0.5-2.5c0.3-1.1,0.5-1.9,0.5-2.5c0-1.1-0.8-1.6-2.4-1.6c-0.1,0-0.3,0-0.5,0c-0.2,0-0.3,0-0.4,0
			l0.3-0.7l1.2,0c1.5,0,2.4,0.1,2.7,0.2s0.6,0.3,0.8,0.4c0.4,0.3,0.6,0.7,0.6,1.3c0,0.6-0.2,1.5-0.6,2.8c-0.4,1.2-0.6,2.1-0.6,2.7
			c0,0.5,0.1,0.9,0.5,1.2c0.3,0.3,0.6,0.5,0.9,0.6s0.6,0.1,1,0.1l-0.2,0.7C50.1,31.8,49.4,31.9,49.2,32z"/>
	</g>
</g>
</svg>
