<?xml version="1.0" encoding="utf-8"?>
<!-- Generator: Adobe Illustrator 19.0.0, SVG Export Plug-In . SVG Version: 6.00 Build 0)  -->
<svg version="1.1" id="Layer_1" xmlns="http://www.w3.org/2000/svg" xmlns:xlink="http://www.w3.org/1999/xlink" x="0px" y="0px"
	width="150px" height="150px" viewBox="28.5 8.5 142.5 82.5" style="enable-background:new 28.5 8.5 142.5 82.5;" xml:space="preserve">
<style type="text/css">
	.st0{fill:#fff;}
</style>
<g id="XMLID_2_">
	<path id="XMLID_3_" class="st0" d="M65.5,25.3h0.2c0.2,0,0.2,0.3,0.2,0.8s-0.4,1.4-1.2,2.4c-1.4,1.6-5,4.5-10.7,8.4
		c-5.7,4.1-10.2,7.1-13.6,9.1c9.4,6.8,15.3,12.1,17.8,16.5c0,0.1,0,0.3,0,0.5c0,0.8-0.6,1.5-1.7,2.6c-1.2,0.9-2.1,1.5-2.7,1.5
		c-0.2,0-0.2,0-0.2,0c-6.6-7.5-12.9-13.4-18.9-17.7c-1.2-0.9-2-1.5-2-2.1c0-0.6,0.8-1.2,2.3-2.1C45.8,39.2,55.8,32.6,65.5,25.3z"/>
	<path id="XMLID_5_" class="st0" d="M77.2,45.1c-3.8,7.2-5.8,10.6-6.2,10.6c-0.3,0-0.4-0.4-0.4-1.2s0.2-1.5,0.4-2.1
		c2.4-4.2,4.3-8.3,5.6-12c0.1-0.6,0.4-1,0.8-1.4c0.3-0.1,0.6-0.3,1.2-0.3h0.6l6.6,0.6c0.3-0.8,0.8-2.1,1.5-4.2
		c0.8-2,1.4-3.6,1.6-4.5c0.5-1.1,1.1-2.6,1.8-4.4s1.5-3.1,2.3-4.3c0.6-1.1,1.5-2.3,2.6-3.6s2.1-2.4,3.1-3c2.6-1.7,5.3-2.6,8.3-2.6
		c5.3,0,7.8,1.9,7.8,5.8c0,1.5-0.4,2.7-1.2,3.9c-0.8,1.2-1.9,1.6-3.3,1.6c-0.6,0-1.2-0.1-1.6-0.6c-0.4-0.3-0.8-0.8-0.8-1.2
		s0.4-1.2,1.2-2.4c0.8-1.1,1.2-2,1.2-2.9c0-0.8-0.3-1.3-0.9-1.9c-0.6-0.4-1.4-0.8-2.3-0.8c-1.5,0-3,0.8-4.5,2.4
		c-1.5,1.6-2.9,3.8-4.2,6.3c-2.3,4.5-4.2,9.4-6,14.6c0,0.3-0.2,0.5-0.2,0.6c-0.2,0.4-0.3,0.8-0.4,1.1c7.9,0,12.4-0.3,13.5-1.1
		c-0.6,1.6-2.1,2.7-4.2,3.1s-5.5,0.8-10.3,0.9l-2.3,6.3c-3.2,8.8-5.6,15-7.2,18.3c-1.7,3.3-3.3,6.1-4.8,8.5c-1.5,2.4-3,4.4-4.5,6
		c-3.4,3.6-6.9,5.4-10.7,5.4c-2.4,0-4.2-0.6-5.4-1.8c-1.2-1.2-1.8-2.4-1.8-3.9s0.3-2.6,0.9-3.6c0.6-0.9,1.3-1.5,2.3-1.5
		c0.9,0,1.3,0.1,1.8,0.6c0.5,0.4,0.6,0.8,0.6,1.2c0,0.5-0.3,1.1-0.8,2c-0.6,0.9-0.8,1.6-0.8,2.4c0,0.6,0.2,1.2,0.6,1.6
		c0.3,0.5,0.9,0.8,1.9,0.8s2-0.4,3.2-1.3s2.4-2.1,3.6-3.8c4.3-6.3,9.9-18.8,17.1-37.2h-2.1C79.8,42.6,77.9,43.4,77.2,45.1z"/>
	<path id="XMLID_7_" class="st0" d="M126,38.6h3.8h0.8c-1.7,1.4-3.8,4.8-6,10.2c-2.4,5.5-3.6,9.4-3.6,12c0,1.3,0.4,1.9,1.3,1.9
		c2.8,0,6.6-4.4,11.1-12.8c0.2-0.3,0.5-0.6,0.6-0.6c0.3,0,0.4,0.5,0.4,1.4c0,0.9-0.3,1.8-0.8,2.7c-6.1,10.4-11.2,15.4-15.4,15.4
		c-2.7,0-4.1-2.1-4.1-6.1c0-3.1,0.4-6.1,1.5-9.1c-5.7,10-10.9,15.1-15.8,15.1c-3.3,0-4.9-2.3-4.9-6.9c0-3.5,0.8-7,2.3-10.6
		s3.8-6.6,6.6-9.1c2.9-2.5,6-3.8,9.4-3.8c1.7,0,3.2,0.3,4.5,1c1.4,0.8,2.3,2,2.9,3.5c0.6-1.2,1.4-2.1,2.5-3
		C123.9,38.9,124.9,38.6,126,38.6z M119.6,43.4c-0.4-1.6-1.6-2.4-3.4-2.4c-3.3,0-6.4,2.3-9.6,6.9s-4.7,8.7-4.7,12.3
		c0,1.5,0.6,2.3,1.8,2.3c1.4,0,2.9-0.8,4.5-2.4c1.8-1.7,3.3-3.6,4.8-5.7C116.2,49.4,118.3,45.8,119.6,43.4z"/>
	<path id="XMLID_10_" class="st0" d="M165,42.9c1.2,0.9,1.9,1.5,1.9,2.1c0,0.6-0.8,1.3-2.3,2.1c-10.6,6-20.7,12.6-30,19.8
		c-0.1,0.2-0.1,0.2-0.3,0.2c-0.1,0-0.1-0.2-0.1-0.5c0-1,0.5-1.9,1.2-2.7c1.4-1.6,4.8-4.5,10.4-8.3c5.5-3.9,10.2-7.1,13.9-9.4
		c-3.4-2.4-6.9-5.1-10.5-8.3c-3.4-3.2-6-5.9-7.4-8.3c-0.1-0.1-0.1-0.3-0.1-0.4c0-0.8,0.6-1.5,1.8-2.6s2.1-1.5,2.7-1.5
		c0.1,0,0.1,0,0.1,0C152.6,32.8,159,38.6,165,42.9z"/>
</g>
</svg>
