<?xml version="1.0" encoding="utf-8"?>
<!-- Generator: Adobe Illustrator 19.0.0, SVG Export Plug-In . SVG Version: 6.00 Build 0)  -->
<svg version="1.1" id="Layer_1" xmlns="http://www.w3.org/2000/svg" xmlns:xlink="http://www.w3.org/1999/xlink" x="0px" y="0px"
	width="60px" height="60px" viewBox="-6.3 33.8 34.5 34.2" style="enable-background:new -6.3 33.8 34.5 34.2;" xml:space="preserve">
<style type="text/css">
	.st0{fill:#FFF;}
</style>
<g id="XMLID_1_">
	<path id="XMLID_2_" class="st0" d="M2.9,37.5c2.4-1.4,5.2-2.2,8.1-2.2s5.6,0.8,8.1,2.2s4.4,3.4,5.8,5.8c1.4,2.4,2.2,5.2,2.2,8.1
		c0,3.5-1,6.7-3.1,9.5s-4.7,4.7-7.9,5.8c-0.4,0.1-0.7,0-0.8-0.2s-0.3-0.4-0.3-0.7c0,0,0-0.6,0-1.6s0-2,0-2.8c0-1.3-0.4-2.3-1.1-3
		c0.7-0.1,1.5-0.2,2.2-0.4s1.3-0.5,2-0.8c0.7-0.4,1.2-0.8,1.7-1.4c0.5-0.6,0.8-1.3,1.1-2.2c0.3-0.9,0.5-2,0.5-3.2
		c0-1.7-0.6-3.1-1.7-4.3c0.5-1.3,0.5-2.7-0.2-4.3c-0.4-0.1-0.9-0.1-1.7,0.2c-0.7,0.3-1.4,0.6-2,0.9l-0.7,0.5c-1.3-0.4-2.6-0.6-4-0.6
		s-2.7,0.2-4,0.6C6.7,43.2,6.3,43,6,42.8c-0.4-0.2-0.9-0.5-1.8-0.8c-0.7-0.3-1.4-0.4-1.8-0.3c-0.7,1.6-0.7,3-0.2,4.3
		c-1.1,1.2-1.7,2.6-1.7,4.3c0,1.2,0.2,2.3,0.5,3.1c0.3,0.9,0.7,1.6,1.1,2.2s1,1,1.7,1.4s1.3,0.7,2,0.8C6.5,58,7.2,58.1,8,58.2
		c-0.6,0.5-0.8,1.2-1,2.2c-0.3,0.1-0.6,0.3-0.9,0.3c-0.4,0.1-0.7,0.1-1.2,0.1s-0.9-0.2-1.4-0.5S2.6,59.5,2.3,59
		c-0.3-0.5-0.6-0.8-1-1.1c-0.4-0.3-0.7-0.5-1-0.5l-0.4-0.1c-0.3,0-0.5,0-0.6,0.1c-0.1,0.1-0.2,0.2-0.1,0.3c0.1,0.1,0.1,0.2,0.2,0.3
		c0.1,0.1,0.2,0.2,0.3,0.3l0.2,0.1c0.3,0.1,0.7,0.4,0.9,0.7c0.3,0.4,0.6,0.8,0.7,1l0.2,0.5c0.2,0.6,0.5,0.9,0.9,1.3
		C3,62.2,3.5,62.4,4,62.5c0.5,0.1,1,0.1,1.5,0.2c0.5,0,0.8,0,1.1-0.1l0.5-0.1c0,0.6,0,1.1,0,1.9c0,0.8,0,1.1,0,1.1
		c0,0.3-0.1,0.5-0.3,0.7c-0.2,0.2-0.5,0.2-0.8,0.2c-3.3-1-5.9-3-7.9-5.8C-4,57.7-5,54.7-5,51.1c0-2.9,0.8-5.6,2.2-8.1
		C-1.5,40.9,0.5,38.9,2.9,37.5z M1.1,58.4c0-0.1,0-0.2-0.2-0.3c-0.1,0-0.2,0-0.3,0c0,0.1,0,0.2,0.2,0.3C0.9,58.5,1,58.5,1.1,58.4z
		 M1.6,59.2c0.1-0.1,0.1-0.2,0-0.4c-0.1-0.1-0.3-0.2-0.4-0.1c-0.1,0.1-0.1,0.2,0,0.4C1.4,59.2,1.6,59.2,1.6,59.2z M2.3,60.1
		c0.1-0.1,0.1-0.2,0-0.4c-0.1-0.2-0.2-0.2-0.4-0.1c-0.1,0.1-0.1,0.2,0,0.4C2,60.2,2.2,60.1,2.3,60.1z M3.2,60.9
		c0.1-0.1,0.1-0.3-0.1-0.4c-0.2-0.2-0.3-0.2-0.4-0.1c-0.1,0.1-0.1,0.3,0.1,0.4C2.9,61,3,61,3.2,60.9z M4.3,61.5
		c0-0.2-0.1-0.3-0.3-0.4c-0.2-0.1-0.4,0-0.4,0.2c0,0.2,0,0.3,0.3,0.3C4.2,61.7,4.3,61.6,4.3,61.5z M5.7,61.6c0-0.2-0.1-0.3-0.4-0.2
		c-0.2,0-0.4,0.1-0.4,0.2c0,0.2,0.1,0.3,0.4,0.2C5.6,61.8,5.7,61.7,5.7,61.6z M6.9,61.3c0-0.2-0.2-0.2-0.4-0.2
		c-0.2,0-0.3,0.2-0.3,0.3c0,0.2,0.2,0.2,0.4,0.2C6.9,61.6,7,61.5,6.9,61.3z"/>
</g>
</svg>
