<?xml version="1.0" encoding="utf-8"?>
<!-- Generator: Adobe Illustrator 19.0.0, SVG Export Plug-In . SVG Version: 6.00 Build 0)  -->
<svg version="1.1" id="Layer_1" xmlns="http://www.w3.org/2000/svg" xmlns:xlink="http://www.w3.org/1999/xlink" x="0px" y="0px"
	width="60px" height="60px" viewBox="-6.7 34.7 35.3 33" style="enable-background:new -6.7 34.7 35.3 33;" xml:space="preserve">
<style type="text/css">
	.st0{fill:#FFF;}
</style>
<g id="XMLID_1_">
	<path id="XMLID_2_" class="st0" d="M2.7,39.2c0,1-0.4,1.9-1,2.5c-0.7,0.7-1.7,1-2.8,1l0,0c-1.1,0-2.1-0.4-2.7-1
		c-0.7-0.7-1-1.5-1-2.5s0.4-1.9,1-2.5s1.7-1,2.8-1s2.1,0.4,2.8,1S2.7,38.2,2.7,39.2z M2.2,45.7v20.7h-6.9V45.7H2.2z M27,54.5v11.9
		h-6.8V55.3c0-1.5-0.3-2.6-0.8-3.5c-0.6-0.8-1.4-1.2-2.6-1.2c-0.8,0-1.6,0.3-2.3,0.8c-0.6,0.5-1,1-1.3,1.8C13,53.5,13,54.1,13,54.8
		v11.5H6.1c0-5.5,0-10.1,0-13.5c0-3.5,0-5.5,0-6.2v-1H13v3l0,0c0.3-0.5,0.6-0.8,0.8-1.2c0.3-0.4,0.7-0.7,1.2-1.1
		c0.5-0.4,1.1-0.7,1.8-0.9c0.7-0.2,1.5-0.3,2.4-0.3c2.3,0,4.3,0.7,5.7,2.3C26.4,49.1,27,51.4,27,54.5z"/>
</g>
</svg>
