<?xml version="1.0" encoding="utf-8"?>
<!-- Generator: Adobe Illustrator 19.0.0, SVG Export Plug-In . SVG Version: 6.00 Build 0)  -->
<svg version="1.1" id="Layer_1" xmlns="http://www.w3.org/2000/svg" xmlns:xlink="http://www.w3.org/1999/xlink" x="0px" y="0px"
	 viewBox="0 0 60 25.2" style="enable-background:new 0 0 60 25.2;" xml:space="preserve">
<g id="XMLID_28_">
	<path id="XMLID_29_" d="M8.4,4.8C8.4,4.8,8.4,4.8,8.4,4.8c0.1,0,0.1,0.1,0.1,0.2c0,0.2-0.1,0.4-0.2,0.7C8,6.3,7.4,7.2,6.5,8.5
		c-1,1.3-1.7,2.2-2.3,2.9c1.6,2.1,2.6,3.8,3,5.2c0,0,0,0.1,0,0.1c0,0.2-0.1,0.5-0.3,0.8C6.7,17.8,6.6,18,6.4,18c0,0,0,0,0,0
		c-1.1-2.3-2.2-4.2-3.2-5.5c-0.2-0.3-0.3-0.5-0.3-0.7c0-0.2,0.1-0.4,0.4-0.7C5,9.2,6.7,7.2,8.4,4.8z"/>
	<path id="XMLID_31_" d="M10.3,11.1c-0.6,2.3-1,3.4-1.1,3.4c0,0-0.1-0.1-0.1-0.4s0-0.5,0.1-0.7c0.4-1.3,0.7-2.6,0.9-3.8
		c0-0.2,0.1-0.3,0.1-0.4c0-0.1,0.1-0.1,0.2-0.1h0.1l1.1,0.2C11.8,9,11.9,8.6,12.1,8c0.1-0.6,0.2-1.1,0.3-1.4
		c0.1-0.3,0.2-0.8,0.3-1.3s0.3-1,0.4-1.3s0.3-0.7,0.4-1.1c0.2-0.4,0.4-0.7,0.5-1C14.4,1.2,14.9,1,15.4,1c0.9,0,1.3,0.6,1.3,1.8
		c0,0.5-0.1,0.9-0.2,1.2c-0.1,0.4-0.3,0.5-0.6,0.5c-0.1,0-0.2-0.1-0.3-0.2c-0.1-0.1-0.1-0.2-0.1-0.4c0-0.1,0.1-0.4,0.2-0.7
		s0.2-0.6,0.2-0.9c0-0.2-0.1-0.4-0.2-0.6c-0.1-0.2-0.2-0.2-0.4-0.2c-0.3,0-0.5,0.3-0.8,0.8c-0.3,0.5-0.5,1.2-0.7,2
		c-0.4,1.4-0.7,3-1,4.6c0,0.1,0,0.1,0,0.2c0,0.1,0,0.2-0.1,0.3c1.3,0,2.1-0.1,2.3-0.3c-0.1,0.5-0.3,0.8-0.7,1
		c-0.4,0.2-0.9,0.3-1.8,0.3l-0.4,2c-0.5,2.8-0.9,4.7-1.2,5.8s-0.6,1.9-0.8,2.7c-0.3,0.8-0.5,1.4-0.8,1.9c-0.6,1.1-1.2,1.7-1.8,1.7
		c-0.4,0-0.7-0.2-0.9-0.5c-0.2-0.4-0.3-0.8-0.3-1.2s0.1-0.8,0.2-1.1C6.7,21.1,6.9,21,7,21s0.2,0.1,0.3,0.2c0.1,0.1,0.1,0.2,0.1,0.4
		c0,0.1,0,0.3-0.1,0.6s-0.1,0.5-0.1,0.7c0,0.2,0,0.4,0.1,0.5s0.2,0.2,0.3,0.2c0.2,0,0.3-0.1,0.5-0.4c0.2-0.3,0.4-0.7,0.6-1.2
		c0.7-2,1.7-5.9,2.9-11.7h-0.4C10.8,10.3,10.5,10.6,10.3,11.1z"/>
	<path id="XMLID_33_" d="M18.6,9l0.6,0h0.1c-0.3,0.4-0.6,1.5-1,3.2c-0.4,1.7-0.6,3-0.6,3.8c0,0.4,0.1,0.6,0.2,0.6
		c0.5,0,1.1-1.3,1.9-4c0-0.1,0.1-0.2,0.1-0.2c0.1,0,0.1,0.1,0.1,0.4c0,0.3,0,0.6-0.1,0.8c-1,3.3-1.9,4.9-2.6,4.9
		c-0.5,0-0.7-0.7-0.7-2c0-1,0.1-1.9,0.3-2.9c-1,3.2-1.9,4.8-2.7,4.8c-0.6,0-0.9-0.7-0.9-2.2c0-1.1,0.1-2.2,0.4-3.4
		c0.3-1.1,0.6-2.1,1.1-2.9c0.5-0.8,1-1.2,1.6-1.2c0.3,0,0.5,0.1,0.8,0.3s0.4,0.6,0.5,1.1c0.1-0.4,0.2-0.7,0.4-0.9
		C18.3,9.2,18.4,9,18.6,9z M17.6,10.6c-0.1-0.5-0.3-0.8-0.6-0.8c-0.6,0-1.1,0.7-1.6,2.2c-0.5,1.4-0.8,2.7-0.8,3.9
		c0,0.5,0.1,0.7,0.3,0.7c0.2,0,0.5-0.3,0.8-0.8c0.3-0.5,0.6-1.1,0.8-1.8C16.9,12.5,17.3,11.3,17.6,10.6z"/>
	<path id="XMLID_36_" d="M21.3,9L22,9h0.1c-0.1,0.2-0.3,0.7-0.5,1.5c-0.2,0.8-0.4,1.5-0.5,1.9c-0.1,0.4-0.2,1-0.4,1.7
		s-0.2,1.3-0.2,1.8c0,0.5,0.1,0.7,0.2,0.7c0.1,0,0.3-0.1,0.5-0.4c0.2-0.3,0.4-0.6,0.5-0.9s0.3-0.7,0.4-1.2c0.2-0.5,0.3-0.9,0.4-1.2
		c0.1-0.3,0.2-0.5,0.2-0.5c0.1,0,0.1,0.1,0.1,0.4c0,0.3,0,0.6-0.1,0.8c-0.3,1-0.6,1.8-0.9,2.4c-0.3,0.7-0.6,1.2-0.9,1.7
		c-0.3,0.5-0.6,0.7-0.9,0.7c-0.5,0-0.7-0.6-0.7-1.8c0-1.9,0.4-4,1.1-6.3C20.6,9.5,21,9,21.3,9z M23,5.9L23,5.9
		c-0.2,0-0.4,0.1-0.5,0.4c-0.2,0.3-0.3,0.5-0.3,0.8C22,7,21.8,6.7,21.8,6.3s0.1-0.8,0.3-1.2c0.2-0.4,0.4-0.6,0.6-0.6
		c0.2,0,0.3,0.1,0.4,0.2c0.1,0.2,0.1,0.4,0.1,0.6C23.3,5.5,23.2,5.7,23,5.9z"/>
	<path id="XMLID_39_" d="M27.4,13.7c-0.6,2-1.2,3.3-1.7,4.1s-1.2,1.2-2,1.2c-0.5,0-0.9-0.2-1.2-0.5c-0.3-0.3-0.5-0.8-0.5-1.5
		c0-0.4,0.1-0.7,0.2-1c0.1-0.3,0.3-0.5,0.5-0.5c0.2,0,0.3,0.1,0.4,0.4c-0.2,0.3-0.2,0.6-0.2,1c0,0.8,0.2,1.2,0.7,1.2
		c0.3,0,0.5-0.2,0.7-0.5c0.2-0.4,0.3-0.8,0.3-1.2c0-0.4-0.1-0.8-0.2-1.1c-0.1-0.3-0.2-0.6-0.4-0.9s-0.3-0.5-0.4-0.8
		c-0.3-0.6-0.5-1.3-0.5-2.1s0.2-1.5,0.5-2c0.3-0.5,0.8-0.8,1.3-0.8c0.4,0,0.7,0.1,0.9,0.4c0.2,0.2,0.4,0.6,0.4,1.1S26.1,11,26,11.4
		s-0.4,0.5-0.7,0.5c-0.3,0-0.4-0.2-0.4-0.7c0-0.1,0.1-0.3,0.3-0.5c0.2-0.2,0.3-0.4,0.3-0.7c0-0.2-0.1-0.4-0.2-0.5
		c-0.1-0.1-0.3-0.2-0.5-0.2c-0.2,0-0.4,0.1-0.6,0.4c-0.2,0.3-0.3,0.6-0.3,1s0.1,0.8,0.3,1.2c0.2,0.4,0.4,0.7,0.6,0.9
		c0.2,0.3,0.4,0.6,0.6,1.1s0.3,0.9,0.3,1.4c0,0.5-0.1,0.9-0.2,1.3c-0.1,0.4-0.3,0.7-0.4,0.9c0.5-0.4,1-1.3,1.5-2.8
		c0.1-0.1,0.1-0.4,0.3-0.8c0.3-1,0.5-1.5,0.5-1.5c0.1,0,0.1,0.1,0.1,0.4C27.6,13.1,27.5,13.4,27.4,13.7z"/>
	<path id="XMLID_41_" d="M32.2,9l0.6,0h0.1c-0.3,0.4-0.6,1.5-1,3.2c-0.4,1.7-0.6,3-0.6,3.8c0,0.4,0.1,0.6,0.2,0.6
		c0.5,0,1.1-1.3,1.9-4c0-0.1,0.1-0.2,0.1-0.2c0.1,0,0.1,0.1,0.1,0.4c0,0.3,0,0.6-0.1,0.8c-1,3.3-1.9,4.9-2.6,4.9
		c-0.5,0-0.7-0.7-0.7-2c0-1,0.1-1.9,0.3-2.9c-1,3.2-1.9,4.8-2.7,4.8c-0.6,0-0.9-0.7-0.9-2.2c0-1.1,0.1-2.2,0.4-3.4
		c0.3-1.1,0.6-2.1,1.1-2.9c0.5-0.8,1-1.2,1.6-1.2c0.3,0,0.5,0.1,0.8,0.3s0.4,0.6,0.5,1.1c0.1-0.4,0.2-0.7,0.4-0.9
		C31.8,9.2,32,9,32.2,9z M31.1,10.6c-0.1-0.5-0.3-0.8-0.6-0.8c-0.6,0-1.1,0.7-1.6,2.2c-0.5,1.4-0.8,2.7-0.8,3.9
		c0,0.5,0.1,0.7,0.3,0.7c0.2,0,0.5-0.3,0.8-0.8c0.3-0.5,0.6-1.1,0.8-1.8C30.5,12.5,30.9,11.3,31.1,10.6z"/>
	<path id="XMLID_44_" d="M37.8,4.1C37.5,5.2,37,6.5,36.4,8s-1.2,2.6-1.7,3.5l-0.2,1.1c-0.1,0.6-0.2,1.2-0.3,2
		c-0.1,0.8-0.1,1.3-0.1,1.7c0,0.5,0.1,0.7,0.3,0.7c0.2,0,0.4-0.2,0.7-0.6c0.3-0.4,0.4-0.7,0.6-1s0.3-0.7,0.4-1.1
		c0.2-0.5,0.3-0.9,0.4-1.2c0.1-0.3,0.2-0.5,0.2-0.5c0.1,0,0.1,0.1,0.1,0.4c0,0.3,0,0.6-0.1,0.8c-0.5,1.5-0.8,2.5-1.1,3.1
		c-0.6,1.2-1.2,1.8-1.8,1.8c-0.5,0-0.7-0.6-0.7-1.8c0-1.2,0.3-3.2,0.8-6.2c0-0.3,0.1-0.8,0.3-1.6c0.2-0.8,0.3-1.4,0.4-1.9
		c0.1-0.4,0.3-1,0.4-1.8c0.2-0.7,0.4-1.3,0.5-1.8c0.2-0.4,0.4-0.9,0.6-1.3c0.4-0.9,0.9-1.4,1.3-1.4s0.7,0.4,0.7,1.2
		C38.1,2.8,38,3.4,37.8,4.1z M37.5,1.5L37.5,1.5c-0.6,0-1.4,2.9-2.6,8.6c1.2-2.5,1.9-4.6,2.4-6.2c0.2-1,0.4-1.6,0.4-1.9
		C37.7,1.6,37.6,1.5,37.5,1.5z"/>
	<path id="XMLID_47_" d="M45.1,9l0.6,0h0.1c-0.3,0.4-0.6,1.5-1,3.2c-0.4,1.7-0.6,3-0.6,3.8c0,0.4,0.1,0.6,0.2,0.6
		c0.5,0,1.1-1.3,1.9-4c0-0.1,0.1-0.2,0.1-0.2c0.1,0,0.1,0.1,0.1,0.4c0,0.3,0,0.6-0.1,0.8c-1,3.3-1.9,4.9-2.6,4.9
		c-0.5,0-0.7-0.7-0.7-2c0-1,0.1-1.9,0.3-2.9c-1,3.2-1.9,4.8-2.7,4.8c-0.6,0-0.8-0.7-0.8-2.2c0-1.1,0.1-2.2,0.4-3.4
		c0.3-1.1,0.6-2.1,1.1-2.9s1-1.2,1.6-1.2c0.3,0,0.5,0.1,0.8,0.3c0.2,0.2,0.4,0.6,0.5,1.1c0.1-0.4,0.2-0.7,0.4-0.9
		C44.7,9.2,44.9,9,45.1,9z M44,10.6c-0.1-0.5-0.3-0.8-0.6-0.8c-0.6,0-1.1,0.7-1.6,2.2c-0.5,1.4-0.8,2.7-0.8,3.9
		c0,0.5,0.1,0.7,0.3,0.7c0.2,0,0.5-0.3,0.8-0.8c0.3-0.5,0.6-1.1,0.8-1.8C43.4,12.5,43.8,11.3,44,10.6z"/>
	<path id="XMLID_50_" d="M50.7,4.1c-0.3,1.1-0.8,2.5-1.4,3.9s-1.2,2.6-1.7,3.5l-0.2,1.1c-0.1,0.6-0.2,1.2-0.3,2
		C47,15.4,47,15.9,47,16.2c0,0.5,0.1,0.7,0.3,0.7c0.2,0,0.4-0.2,0.7-0.6c0.3-0.4,0.4-0.7,0.6-1s0.3-0.7,0.4-1.1
		c0.2-0.5,0.3-0.9,0.4-1.2c0.1-0.3,0.2-0.5,0.2-0.5c0.1,0,0.1,0.1,0.1,0.4c0,0.3,0,0.6-0.1,0.8c-0.5,1.5-0.8,2.5-1.1,3.1
		c-0.6,1.2-1.2,1.8-1.8,1.8c-0.5,0-0.7-0.6-0.7-1.8c0-1.2,0.3-3.2,0.8-6.2c0-0.3,0.1-0.8,0.3-1.6c0.2-0.8,0.3-1.4,0.4-1.9
		c0.1-0.4,0.3-1,0.4-1.8c0.2-0.7,0.4-1.3,0.5-1.8c0.2-0.4,0.4-0.9,0.6-1.3c0.4-0.9,0.9-1.4,1.3-1.4S51,1.3,51,2.1
		C51,2.8,50.9,3.4,50.7,4.1z M50.4,1.5L50.4,1.5c-0.6,0-1.4,2.9-2.6,8.6c1.2-2.5,1.9-4.6,2.4-6.2c0.2-1,0.4-1.6,0.4-1.9
		C50.6,1.6,50.5,1.5,50.4,1.5z"/>
	<path id="XMLID_53_" d="M50.9,9l0.6,0h0.1c-0.1,0.2-0.3,0.7-0.5,1.5c-0.2,0.8-0.4,1.5-0.5,1.9c-0.1,0.4-0.2,1-0.4,1.7
		c-0.1,0.7-0.2,1.3-0.2,1.8c0,0.5,0.1,0.7,0.2,0.7c0.1,0,0.3-0.1,0.5-0.4c0.2-0.3,0.4-0.6,0.5-0.9s0.3-0.7,0.4-1.2
		c0.2-0.5,0.3-0.9,0.4-1.2c0.1-0.3,0.2-0.5,0.2-0.5c0.1,0,0.1,0.1,0.1,0.4c0,0.3,0,0.6-0.1,0.8c-0.3,1-0.6,1.8-0.9,2.4
		c-0.3,0.7-0.6,1.2-0.9,1.7s-0.6,0.7-0.9,0.7c-0.5,0-0.7-0.6-0.7-1.8c0-1.9,0.4-4,1.1-6.3C50.2,9.5,50.6,9,50.9,9z M52.6,5.9
		L52.6,5.9c-0.2,0-0.4,0.1-0.5,0.4c-0.2,0.3-0.3,0.5-0.3,0.8c-0.2-0.2-0.3-0.4-0.3-0.8s0.1-0.8,0.3-1.2c0.2-0.4,0.4-0.6,0.6-0.6
		c0.2,0,0.3,0.1,0.4,0.2c0.1,0.2,0.1,0.4,0.1,0.6C52.9,5.5,52.8,5.7,52.6,5.9z"/>
	<path id="XMLID_56_" d="M57.6,10.4c0.2,0.3,0.3,0.5,0.3,0.7c0,0.2-0.1,0.4-0.4,0.7c-1.8,1.9-3.5,4-5.1,6.2c0,0,0,0-0.1,0
		c0,0,0,0,0-0.1c0-0.3,0.1-0.6,0.2-0.9c0.2-0.5,0.8-1.4,1.7-2.6c0.9-1.2,1.7-2.2,2.4-2.9c-0.6-0.8-1.2-1.6-1.8-2.6
		c-0.6-1-1-1.9-1.2-2.6c0-0.1,0-0.1,0-0.1c0-0.2,0.1-0.5,0.3-0.8c0.2-0.3,0.3-0.5,0.5-0.5c0,0,0,0,0,0C55.5,7.2,56.5,9,57.6,10.4z"
		/>
</g>
</svg>
