<?xml version="1.0" encoding="utf-8"?>
<!-- Generator: Adobe Illustrator 19.0.0, SVG Export Plug-In . SVG Version: 6.00 Build 0)  -->
<svg version="1.1" id="Layer_1" xmlns="http://www.w3.org/2000/svg" xmlns:xlink="http://www.w3.org/1999/xlink" x="0px" y="0px"
	width="150px" height="150px" viewBox="33.3 -14.7 131 131.3" style="enable-background:new 33.3 -14.7 131 131.3;" xml:space="preserve">
<style type="text/css">
	.st0{fill:#006B6C;}
</style>
<g id="XMLID_1_">
	<path id="XMLID_15_" class="st0" d="M99.1-12.4C64.2-12.4,36,15.9,36,50.9s28.4,63.3,63.3,63.3s63.3-28.4,63.3-63.3
		C162.4,15.9,134-12.4,99.1-12.4z M62.2,64.4c-5.3-6-10.3-10.6-15-14.1c-1-0.8-1.5-1.2-1.5-1.6c0-0.5,0.6-1.1,1.8-1.6
		c8.3-4.6,16.3-9.9,24-15.9h0.2c0.2,0,0.2,0.1,0.2,0.6c0,0.4-0.3,1-0.9,1.9c-1.1,1.4-3.9,3.6-8.4,6.8s-8.1,5.7-11,7.4
		C59,53.2,63.9,57.5,65.8,61c0,0.1,0,0.1,0,0.3c0,0.6-0.5,1.2-1.4,2c-0.9,0.8-1.6,1.2-2.1,1.2C62.3,64.4,62.3,64.4,62.2,64.4z
		 M89.9,50c-2.6,7-4.3,12-5.7,14.7c-1.4,2.7-2.7,4.9-3.9,6.9c-1.2,2-2.4,3.5-3.6,4.8c-2.7,2.9-5.6,4.4-8.4,4.4
		c-1.9,0-3.4-0.5-4.3-1.4c-0.9-0.9-1.4-2-1.4-3.1c0-1.2,0.3-2.1,0.8-2.9c0.5-0.8,1-1.2,1.8-1.2c0.6,0,1.1,0.2,1.5,0.5
		c0.5,0.3,0.5,0.6,0.5,0.9s-0.2,0.9-0.6,1.6c-0.5,0.8-0.6,1.4-0.6,2c0,0.5,0.2,0.9,0.5,1.4c0.3,0.3,0.8,0.6,1.5,0.6s1.5-0.3,2.5-1
		c1.1-0.8,2-1.5,2.9-2.7c3.4-5.1,7.9-14.5,13.7-29.5h-1.7c-2.1,0-3.4,0.3-4,1.6c-3,5.7-4.7,8.4-5,8.4c-0.1,0-0.3-0.4-0.3-1
		s0.1-1.2,0.3-1.8c2-3.3,3.5-6.6,4.5-9.6c0.2-0.4,0.3-0.6,0.6-0.8c0.1-0.1,0.6,0,1.1,0h0.4l5.3,0.1c0.3-0.6,0.6-1.8,1.2-3.4
		c0.6-1.6,1.1-2.9,1.4-3.8c0.3-0.9,0.8-2,1.5-3.5c0.8-1.5,1.2-2.5,1.8-3.4c0.5-0.9,1.2-1.8,2.1-2.9c0.9-1.1,1.6-1.8,2.6-2.4
		c2.1-1.4,4.2-2.1,6.6-2.1c4.2,0,6.3,1.5,6.3,4.7c0,1.2-0.3,2.3-1.1,3.1c-0.6,0.9-1.5,1.4-2.6,1.4c-0.4,0-0.9-0.1-1.3-0.4
		c-0.4-0.3-0.6-0.6-0.6-1.1s0.3-1.1,0.9-1.8c0.6-0.9,0.9-1.6,0.9-2.3s-0.3-1.2-0.8-1.5c-0.4-0.4-1-0.6-1.8-0.6c-1.2,0-2.4,0.6-3.6,2
		c-1.2,1.4-2.3,3-3.3,5.1c-1.8,3.6-3.3,7.5-4.8,11.7c0,0.1-0.2,0.3-0.2,0.5c-0.1,0.3-0.1,0.6-0.3,0.9c6.3,0,9.9-0.3,10.8-0.9
		c-0.4,1.4-1.6,2.1-3.3,2.5c-1.7,0.5-4.5,0.6-8.3,0.8L89.9,50z M113.5,66.1c-2.1,0-3.3-1.7-3.3-5c0-2.6,0.4-5,1.2-7.4
		c-4.5,8.1-8.8,12.1-12.6,12.1c-2.7,0-4.1-1.8-4.1-5.5c0-2.9,0.6-5.7,1.8-8.5s3-5.4,5.3-7.4c2.3-2,4.8-3,7.5-3
		c1.3,0,2.6,0.3,3.6,0.9c1.1,0.6,1.8,1.5,2.3,2.9c0.5-0.9,1.1-1.6,2.1-2.4c0.9-0.8,1.8-1.4,2.6-1.4l3-0.3h0.6
		c-1.3,1.5-3,4.2-4.8,8.6c-2,4.4-2.9,7.8-2.9,9.8c0,1,0.3,1.6,1.1,1.6c2.3,0,5.3-3.3,8.8-10.2c0.2-0.3,0.3-0.4,0.5-0.4
		c0.3,0,0.3,0.4,0.3,1c0,0.8-0.1,1.5-0.6,2.1C121,61.9,116.8,66.1,113.5,66.1z M150.9,48.5c-8.6,4.8-16.5,10-24,15.8
		c-0.1,0.1-0.1,0.1-0.3,0.1c-0.1,0-0.1-0.1-0.1-0.3c0-0.9,0.3-1.7,0.9-2.3c1.1-1.4,3.9-3.6,8.3-6.6s8.1-5.5,11.1-7.5
		c-2.7-1.9-5.6-4.2-8.4-6.6c-2.9-2.4-4.8-4.6-5.9-6.6c-0.1-0.1-0.1-0.3-0.1-0.3c0-0.6,0.4-1.2,1.3-2c0.9-0.7,1.7-1.2,2.1-1.2
		c0.1,0,0.1,0,0.1,0c5.3,6,10.4,10.6,15,14.1c1.1,0.8,1.5,1.2,1.5,1.6C152.6,47.3,152,47.9,150.9,48.5z"/>
	<path id="XMLID_21_" class="st0" d="M112.1,43.7c-2.7,0-5.3,1.8-7.6,5.6c-2.6,3.6-3.8,6.9-3.8,9.8c0,1.2,0.4,1.8,1.5,1.8
		s2.3-0.6,3.6-1.9c1.4-1.4,2.7-2.9,3.8-4.6c2.6-3.9,4.2-6.8,5.4-8.7C114.6,44.3,113.5,43.7,112.1,43.7z"/>
</g>
</svg>
