<?xml version="1.0" encoding="utf-8"?>
<!-- Generator: Adobe Illustrator 19.0.0, SVG Export Plug-In . SVG Version: 6.00 Build 0)  -->
<svg version="1.1" id="Layer_1" xmlns="http://www.w3.org/2000/svg" xmlns:xlink="http://www.w3.org/1999/xlink" x="0px" y="0px"
	 viewBox="0 0 64 64" style="enable-background:new 0 0 64 64;" xml:space="preserve">
<style type="text/css">
	.st0{opacity:0.1;}
</style>
<g id="XMLID_1_">
	<path id="XMLID_19_" class="st0" d="M31.9,2C15.1,2,1.4,15.6,1.4,32.5S15.1,63,31.9,63s30.5-13.6,30.5-30.5S48.7,2,31.9,2z
		 M31.9,61.8c-16.2,0-29.3-13.1-29.3-29.3S15.7,3.1,31.9,3.1s29.3,13.1,29.3,29.3S48.1,61.8,31.9,61.8z"/>
	<path id="XMLID_20_" class="st0" d="M38.3,29c-1.3,0-2.5,0.9-3.7,2.7c-1.2,1.8-1.8,3.3-1.8,4.7c0,0.6,0.2,0.9,0.7,0.9
		c0.5,0,1.1-0.3,1.8-0.9c0.7-0.6,1.3-1.4,1.8-2.2c1.2-1.9,2.1-3.3,2.6-4.2C39.5,29.3,39.1,29,38.3,29z"/>
	<path id="XMLID_23_" class="st0" d="M31.9,4.2C16.3,4.2,3.6,16.9,3.6,32.5s12.7,28.3,28.3,28.3s28.3-12.7,28.3-28.3
		S47.5,4.2,31.9,4.2z M9.6,41.7c-0.4-0.2-0.8-0.3-1.1-0.5c-0.5-0.3-0.8-0.9-0.8-1.7c0-0.8,0.3-2,0.8-3.6c0.6-1.6,0.8-2.7,0.8-3.4
		c0-0.7-0.2-1.2-0.6-1.6c-0.4-0.4-0.8-0.6-1.2-0.7c-0.4-0.1-0.8-0.1-1.2-0.1l0.3-0.9c1.6-0.1,2.5-0.3,2.7-0.4
		c0.3-0.2,0.5-0.4,0.8-0.6c0.7-0.5,1.2-1.7,1.7-3.6c0.2-0.7,0.3-1.3,0.4-1.7c0.1-0.4,0.4-0.9,0.9-1.4c0.5-0.5,1-1,1.6-1.3
		c0.6-0.3,1.1-0.5,1.4-0.7c0.8-0.3,2.1-0.5,3.7-0.5h0.8l-0.3,0.9c-1.7,0-2.9,0.3-3.8,1c-0.3,0.3-0.7,0.6-0.9,1.1
		c-0.3,0.5-0.5,0.9-0.6,1.3c-0.1,0.4-0.2,0.9-0.4,1.5c-0.2,0.6-0.3,1.1-0.4,1.4c-0.4,1-1.1,1.8-2.3,2.6c-1.1,0.7-2.3,1.1-3.4,1.1
		c0.9,0,1.7,0.3,2.5,0.9c0.8,0.6,1.1,1.2,1.1,2c0,0.8-0.2,1.9-0.7,3.2c-0.4,1.4-0.7,2.4-0.7,3.2c0,1.4,1,2.1,3.1,2.1
		c0.1,0,0.3,0,0.6,0c0.3,0,0.4,0,0.5,0l-0.3,0.8L13.1,42C11.2,42,10,41.9,9.6,41.7z M27.7,32c-1.2,3.4-2.1,5.8-2.8,7.1
		c-0.7,1.3-1.3,2.4-1.9,3.3c-0.6,0.9-1.2,1.7-1.8,2.3c-1.3,1.4-2.7,2.1-4.1,2.1c-0.9,0-1.6-0.2-2.1-0.7c-0.5-0.4-0.7-0.9-0.7-1.5
		c0-0.6,0.1-1,0.4-1.4c0.3-0.4,0.5-0.6,0.8-0.6c0.3,0,0.5,0.1,0.7,0.2c0.2,0.1,0.2,0.3,0.2,0.5c0,0.2-0.1,0.4-0.3,0.8
		c-0.2,0.4-0.3,0.7-0.3,0.9c0,0.3,0.1,0.5,0.2,0.6c0.1,0.2,0.4,0.3,0.7,0.3s0.8-0.2,1.2-0.5c0.5-0.3,0.9-1.1,1.4-1.8
		C21.1,41.3,23.3,37,26,29h-0.8c-1,0-1.6,0.6-2,1.2c-1.4,2.8-2.3,4.3-2.4,4.3c-0.1,0-0.1-0.1-0.1-0.4c0-0.3,0.1-0.6,0.2-0.8
		c0.9-1.6,1.7-3.1,2.1-4.6c0.1-0.3,0.2-0.5,0.3-0.6c0.1-0.1,0.3-0.2,0.5-0.2H24l2.6,0.3c0.1-0.3,0.3-0.8,0.6-1.6
		c0.3-0.8,0.5-1.3,0.7-1.8c0.2-0.4,0.4-0.9,0.7-1.6c0.3-0.7,0.6-1.2,0.8-1.6c0.3-0.4,0.6-0.9,1-1.4c0.4-0.5,0.8-0.9,1.2-1.2
		c1-0.7,2-1,3.2-1c2,0,3,0.7,3,2.2c0,0.6-0.2,1.1-0.5,1.5c-0.3,0.4-0.7,0.7-1.3,0.7c-0.3,0-0.5-0.1-0.7-0.2
		c-0.2-0.1-0.3-0.3-0.3-0.5c0-0.2,0.1-0.5,0.4-0.9c0.3-0.4,0.4-0.8,0.4-1.1c0-0.3-0.1-0.5-0.4-0.7c-0.2-0.2-0.5-0.3-0.9-0.3
		c-0.6,0-1.2,0.3-1.7,0.9c-0.6,0.6-1.1,1.4-1.6,2.4c-0.9,1.8-1.6,3.6-2.3,5.6c0,0.1,0,0.2-0.1,0.2c-0.1,0.2-0.1,0.3-0.1,0.4
		c3.1,0,4.8-0.1,5.2-0.4c-0.3,0.6-0.8,1-1.6,1.2c-0.8,0.2-2.2,0.3-4,0.3L27.7,32z M39,39.8c-1,0-1.6-0.8-1.6-2.4
		c0-1.2,0.2-2.4,0.6-3.5c-2.2,3.9-4.2,5.9-6.1,5.9c-1.3,0-1.9-0.9-1.9-2.7c0-1.4,0.3-2.7,0.9-4.1c0.6-1.4,1.4-2.6,2.5-3.5
		c1.1-1,2.3-1.5,3.6-1.5c0.6,0,1.2,0.1,1.7,0.4c0.5,0.3,0.9,0.7,1.1,1.3c0.2-0.4,0.5-0.8,1-1.2c0.4-0.3,0.9-0.5,1.2-0.5l1.4,0h0.3
		c-0.6,1-1.4,1.9-2.3,4c-0.9,2.1-1.4,3.7-1.4,4.6c0,0.5,0.2,0.8,0.5,0.8c1.1,0,2.6-1.6,4.3-5c0.1-0.1,0.1-0.2,0.2-0.2
		c0.1,0,0.2,0.2,0.2,0.5c0,0.4-0.1,0.7-0.3,1C42.6,37.8,40.6,39.8,39,39.8z M54.4,32.2c-0.3,0.2-0.5,0.4-0.8,0.6
		c-0.7,0.6-1.2,1.8-1.7,3.6c-0.2,0.7-0.3,1.3-0.4,1.7c-0.1,0.4-0.4,0.9-0.9,1.4c-0.5,0.5-1,1-1.6,1.3c-0.6,0.3-1.1,0.5-1.4,0.7
		c-0.3,0.1-0.7,0.2-1.4,0.4C45.5,41.9,45,42,44.5,42c-0.5,0-0.8,0-0.9,0c-0.2,0-0.3,0-0.4,0l0.3-0.9c1.7,0,2.9-0.3,3.7-1
		c0.4-0.3,0.7-0.6,1-1.1c0.3-0.5,0.5-0.9,0.6-1.3c0.1-0.4,0.2-0.9,0.4-1.5c0.2-0.6,0.3-1.1,0.4-1.4c0.4-1,1.1-1.8,2.2-2.6
		c1.1-0.7,2.3-1.1,3.5-1.1c-0.9,0-1.7-0.3-2.5-0.9c-0.7-0.6-1.1-1.2-1.1-2c0-0.8,0.2-1.8,0.7-3.3c0.4-1.4,0.7-2.5,0.7-3.2
		c0-1.4-1-2.1-3.1-2.1c-0.2,0-0.4,0-0.6,0c-0.3,0-0.4,0-0.5,0l0.3-0.8l1.5-0.1c1.9,0,3.1,0.1,3.5,0.2c0.4,0.2,0.8,0.3,1.1,0.5
		c0.5,0.3,0.8,0.9,0.8,1.7c0,0.8-0.3,2-0.8,3.6c-0.6,1.6-0.8,2.7-0.8,3.4c0,0.7,0.2,1.2,0.6,1.6c0.4,0.4,0.8,0.6,1.2,0.7
		c0.4,0.1,0.8,0.1,1.2,0.1l-0.3,0.9C55.6,31.9,54.6,32,54.4,32.2z"/>
</g>
</svg>
