<?xml version="1.0" encoding="utf-8"?>
<!-- Generator: Adobe Illustrator 19.0.0, SVG Export Plug-In . SVG Version: 6.00 Build 0)  -->
<svg version="1.1" id="Layer_1" xmlns="http://www.w3.org/2000/svg" xmlns:xlink="http://www.w3.org/1999/xlink" x="0px" y="0px"
	width="60px" height="60px" viewBox="-12.3 27.8 46.5 46" style="enable-background:new -12.3 27.8 46.5 46;" xml:space="preserve">
<style type="text/css">
	.st0{fill:#FFF;}
</style>
<g id="XMLID_1_">
	<path id="XMLID_2_" class="st0" d="M32.7,64.2c0,0.9-0.4,1.8-1,2.5l-5,5c-0.7,0.7-1.6,1-2.5,1s-1.8-0.4-2.5-1L11,61L0.3,71.7
		c-0.7,0.7-1.6,1-2.5,1s-1.8-0.4-2.5-1l-5-5c-0.7-0.7-1-1.6-1-2.5s0.4-1.8,1-2.5L1,51L-9.7,40.3c-0.7-0.7-1-1.6-1-2.5s0.4-1.8,1-2.5
		l5-5c0.7-0.7,1.6-1,2.5-1s1.8,0.4,2.5,1L11,41l10.7-10.7c0.7-0.7,1.6-1,2.5-1s1.8,0.4,2.5,1l5,5c0.7,0.7,1,1.6,1,2.5
		c0,0.9-0.4,1.8-1,2.5L21,51l10.7,10.7C32.4,62.4,32.7,63.3,32.7,64.2z"/>
</g>
</svg>
