<?xml version="1.0" encoding="utf-8"?>
<!-- Generator: Adobe Illustrator 19.0.0, SVG Export Plug-In . SVG Version: 6.00 Build 0)  -->
<svg version="1.1" id="Layer_1" xmlns="http://www.w3.org/2000/svg" xmlns:xlink="http://www.w3.org/1999/xlink" x="0px" y="0px"
	width="60px" height="60px" viewBox="-10.5 33 43 36.3" style="enable-background:new -10.5 33 43 36.3;" xml:space="preserve">
<style type="text/css">
	.st0{fill:#FFF;}
</style>
<g id="XMLID_1_">
	<path id="XMLID_3_" class="st0" d="M31.1,35.9v3.4c0,0.5-0.2,0.8-0.5,1.2c-0.4,0.4-0.8,0.5-1.2,0.5H-7.4c-0.5,0-0.8-0.2-1.2-0.5
		c-0.4-0.4-0.5-0.8-0.5-1.2v-3.4c0-0.5,0.2-0.8,0.5-1.2c0.4-0.4,0.8-0.5,1.2-0.5h36.8c0.5,0,0.8,0.2,1.2,0.5
		C31,35.1,31.1,35.4,31.1,35.9z M31.1,49.3v3.4c0,0.5-0.2,0.8-0.5,1.2c-0.4,0.4-0.8,0.5-1.2,0.5H-7.4c-0.5,0-0.8-0.2-1.2-0.5
		c-0.4-0.4-0.5-0.8-0.5-1.2v-3.4c0-0.5,0.2-0.8,0.5-1.2c0.4-0.4,0.8-0.5,1.2-0.5h36.8c0.5,0,0.8,0.2,1.2,0.5
		C31,48.5,31.1,48.8,31.1,49.3z M31.1,62.7v3.4c0,0.5-0.2,0.8-0.5,1.2c-0.4,0.4-0.8,0.5-1.2,0.5H-7.4c-0.5,0-0.8-0.2-1.2-0.5
		c-0.4-0.4-0.5-0.8-0.5-1.2v-3.4c0-0.5,0.2-0.8,0.5-1.2c0.4-0.4,0.8-0.5,1.2-0.5h36.8c0.5,0,0.8,0.2,1.2,0.5
		C31,61.9,31.1,62.3,31.1,62.7z"/>
</g>
</svg>
