<?xml version="1.0" encoding="utf-8"?>
<!-- Generator: Adobe Illustrator 19.0.0, SVG Export Plug-In . SVG Version: 6.00 Build 0)  -->
<svg version="1.1" id="Layer_1" xmlns="http://www.w3.org/2000/svg" xmlns:xlink="http://www.w3.org/1999/xlink" x="0px" y="0px"
	width="60px" height="60px" viewBox="-26.3 34.3 34.3 34.3" style="enable-background:new -26.3 34.3 34.3 34.3;" xml:space="preserve">
<style type="text/css">
	.st0{fill:#FFF;}
</style>
<g id="XMLID_1_">
	<path id="XMLID_2_" class="st0" d="M6.1,35.6c0.4,0.3,0.6,0.6,0.5,1.1L2.2,63.5c-0.1,0.3-0.3,0.6-0.6,0.8c-0.2,0.1-0.3,0.1-0.6,0.1
		c-0.1,0-0.3,0-0.4-0.1l-7.9-3.3l-4.2,5.1c-0.2,0.3-0.5,0.4-0.9,0.4c-0.1,0-0.3,0-0.4-0.1c-0.3-0.1-0.4-0.2-0.6-0.4
		c-0.1-0.2-0.2-0.4-0.2-0.6v-6.1L1.6,40.9l-18.7,16.1l-6.9-2.8c-0.4-0.1-0.6-0.5-0.7-0.9c0-0.4,0.2-0.8,0.6-1l29-16.8
		c0.2-0.1,0.4-0.2,0.6-0.2C5.7,35.4,5.9,35.4,6.1,35.6z"/>
</g>
</svg>
