<?xml version="1.0" encoding="utf-8"?>
<!-- Generator: Adobe Illustrator 19.0.0, SVG Export Plug-In . SVG Version: 6.00 Build 0)  -->
<svg version="1.1" id="Layer_1" xmlns="http://www.w3.org/2000/svg" xmlns:xlink="http://www.w3.org/1999/xlink" x="0px" y="0px"
	 viewBox="0 0 46.2 53.2" style="enable-background:new 0 0 46.2 53.2;" xml:space="preserve">
<style type="text/css">
	.st0{fill:#FFFFFF;}
</style>
<g id="XMLID_14_">
	<path id="XMLID_72_" class="st0" d="M42.8,12c0.5,0.5,1,1.2,1.3,2.1c0.4,0.9,0.6,1.7,0.6,2.5v32.2c0,0.7-0.3,1.4-0.8,1.9
		c-0.5,0.5-1.2,0.8-1.9,0.8H4.4c-0.7,0-1.4-0.3-1.9-0.8c-0.5-0.5-0.8-1.2-0.8-1.9V4c0-0.7,0.3-1.4,0.8-1.9C3,1.6,3.7,1.4,4.4,1.4
		h25.1c0.7,0,1.6,0.2,2.5,0.6c0.9,0.4,1.6,0.8,2.1,1.3L42.8,12z M41.1,47.9V19.3H29.5c-0.7,0-1.4-0.3-1.9-0.8
		c-0.5-0.5-0.8-1.2-0.8-1.9V4.9H5.3v43H41.1z M30.4,5.2v10.5h10.5c-0.2-0.5-0.4-0.9-0.6-1.1l-8.8-8.8C31.3,5.5,30.9,5.3,30.4,5.2z"
		/>
</g>
<g id="XMLID_3_">
	<path id="XMLID_4_" class="st0" d="M7,7.7c0.5-0.1,1.2-0.2,2-0.2c1,0,1.8,0.2,2.3,0.7c0.4,0.4,0.7,1,0.7,1.7c0,0.7-0.2,1.3-0.6,1.7
		c-0.6,0.6-1.5,0.9-2.5,0.9c-0.3,0-0.6,0-0.8-0.1v3.2H7V7.7z M8.1,11.6c0.2,0.1,0.5,0.1,0.9,0.1c1.3,0,2-0.6,2-1.7
		c0-1.1-0.8-1.6-1.9-1.6c-0.5,0-0.8,0-1,0.1V11.6z"/>
	<path id="XMLID_7_" class="st0" d="M13.3,14.4c0.5,0.3,1.2,0.5,1.9,0.5c1.1,0,1.7-0.6,1.7-1.4c0-0.8-0.4-1.2-1.5-1.6
		c-1.3-0.5-2.1-1.2-2.1-2.3c0-1.3,1-2.2,2.6-2.2c0.8,0,1.4,0.2,1.8,0.4l-0.3,0.9c-0.3-0.1-0.8-0.4-1.5-0.4c-1.1,0-1.5,0.7-1.5,1.2
		c0,0.8,0.5,1.1,1.6,1.6c1.4,0.5,2.1,1.2,2.1,2.4c0,1.2-0.9,2.3-2.8,2.3c-0.8,0-1.6-0.2-2.1-0.5L13.3,14.4z"/>
	<path id="XMLID_9_" class="st0" d="M19.3,7.7c0.6-0.1,1.4-0.2,2.2-0.2c1.5,0,2.6,0.3,3.3,1c0.7,0.7,1.1,1.6,1.1,2.9
		c0,1.3-0.4,2.4-1.2,3.1c-0.8,0.8-2,1.2-3.6,1.2c-0.7,0-1.4,0-1.9-0.1V7.7z M20.4,14.9c0.3,0,0.6,0.1,1.1,0.1c2.2,0,3.4-1.2,3.4-3.4
		c0-1.9-1.1-3.1-3.3-3.1c-0.5,0-0.9,0-1.2,0.1V14.9z"/>
</g>
<g id="XMLID_65_">
	<path id="XMLID_66_" class="st0" d="M19.2,19.2c0,0.1,0,0.1-0.1,0.2L16,22.5c0,0-0.1,0.1-0.2,0.1c-0.1,0-0.1,0-0.2-0.1l-3.1-3.1
		c0,0-0.1-0.1-0.1-0.2s0-0.1,0.1-0.2l0.3-0.3c0,0,0.1-0.1,0.2-0.1s0.1,0,0.2,0.1l2.6,2.6l2.6-2.6c0,0,0.1-0.1,0.2-0.1
		c0.1,0,0.1,0,0.2,0.1l0.3,0.3C19.2,19.1,19.2,19.1,19.2,19.2z M19.2,21.8c0,0.1,0,0.1-0.1,0.2L16,25c0,0-0.1,0.1-0.2,0.1
		c-0.1,0-0.1,0-0.2-0.1l-3.1-3.1c0,0-0.1-0.1-0.1-0.2s0-0.1,0.1-0.2l0.3-0.3c0,0,0.1-0.1,0.2-0.1s0.1,0,0.2,0.1l2.6,2.6l2.6-2.6
		c0,0,0.1-0.1,0.2-0.1c0.1,0,0.1,0,0.2,0.1l0.3,0.3C19.2,21.7,19.2,21.7,19.2,21.8z"/>
</g>
<g id="XMLID_12_">
	<path id="XMLID_69_" class="st0" d="M21.3,24.9h17.5l-1.6,17.8l-7.2,2l-7.1-2L21.3,24.9z M35.3,30.7l0.2-2.2h-11l0.6,6.6h7.6
		L32.4,38L30,38.7L27.5,38l-0.2-1.7h-2.2l0.3,3.4l4.5,1.2H30v0l4.5-1.2l0.6-6.7h-8l-0.2-2.2H35.3z"/>
</g>
</svg>
