<?xml version="1.0" encoding="utf-8"?>
<!-- Generator: Adobe Illustrator 19.0.0, SVG Export Plug-In . SVG Version: 6.00 Build 0)  -->
<svg version="1.1" id="Layer_1" xmlns="http://www.w3.org/2000/svg" xmlns:xlink="http://www.w3.org/1999/xlink" x="0px" y="0px"
	width="60px" height="60px" viewBox="-0.2 39.5 22 22.8" style="enable-background:new -0.2 39.5 22 22.8;" xml:space="preserve">
<style type="text/css">
	.st0{fill:#FFF;}
</style>
<g id="XMLID_1_">
	<path id="XMLID_2_" class="st0" d="M13.1,51c0,0.2-0.1,0.4-0.2,0.5l-9.8,9.8c-0.1,0.1-0.3,0.2-0.5,0.2s-0.4-0.1-0.5-0.2l-1-1
		C1.1,60.1,1,59.9,1,59.7c0-0.2,0.1-0.4,0.2-0.5L9.3,51l-8.3-8.3c-0.1-0.1-0.2-0.3-0.2-0.5s0.1-0.4,0.2-0.5l1-1
		c0.1-0.1,0.3-0.2,0.5-0.2s0.4,0.1,0.5,0.2l9.7,9.8C13,50.6,13.1,50.8,13.1,51z M21.1,51c0,0.2-0.1,0.4-0.2,0.5l-9.8,9.8
		c-0.1,0.1-0.3,0.2-0.5,0.2s-0.4-0.1-0.5-0.2l-1-1c-0.1-0.1-0.2-0.3-0.2-0.5c0-0.2,0.1-0.4,0.2-0.5l8.2-8.3l-8.2-8.3
		c-0.1-0.1-0.2-0.3-0.2-0.5s0.1-0.4,0.2-0.5l1-1c0.1-0.1,0.3-0.2,0.5-0.2s0.4,0.1,0.5,0.2l9.8,9.8C21,50.6,21.1,50.8,21.1,51z"/>
</g>
</svg>
