<?xml version="1.0" encoding="utf-8"?>
<!-- Generator: Adobe Illustrator 19.0.0, SVG Export Plug-In . SVG Version: 6.00 Build 0)  -->
<svg version="1.1" id="Layer_1" xmlns="http://www.w3.org/2000/svg" xmlns:xlink="http://www.w3.org/1999/xlink" x="0px" y="0px"
	width="60px" height="60px" viewBox="-11.7 28.8 44.7 44.5" style="enable-background:new -11.7 28.8 44.7 44.5;" xml:space="preserve">
<style type="text/css">
	.st0{fill:#FFF;}
</style>
<g id="XMLID_1_">
	<path id="XMLID_3_" class="st0" d="M-10.8,59.7c0-0.7,0.2-1.6,0.6-2.8c0.8-2.3,2.3-4.2,4.3-5.7c2.1-1.5,4.3-2.2,6.8-2.2
		c3.2,0,6,1.1,8.3,3.5c2.3,2.3,3.5,5.1,3.5,8.3s-1.1,6-3.5,8.2c-2.3,2.3-5.1,3.5-8.3,3.5c-1,0-2.1-0.2-3.2-0.5s-2.1-0.7-2.8-1.2
		c-0.3-0.2-0.4-0.5-0.4-0.8c0-0.3,0.1-0.6,0.4-0.7l7.7-4.4V59l-5.1-2.8c-0.1,0.1-0.7,0.5-2.1,1.3C-5.9,58.2-7,59-8.1,59.6
		c-1,0.7-1.7,0.9-1.9,0.9c-0.3,0-0.5-0.1-0.7-0.3C-10.7,60.2-10.8,60-10.8,59.7z M5.8,48.3l17.8-17.8c0.7-0.7,1.4-0.9,2.3-0.9
		s1.7,0.3,2.3,0.9l2.8,2.8c0.7,0.7,1,1.4,1,2.3s-0.4,1.7-1,2.3L13.3,55.8c-0.7-1.7-1.7-3.2-3-4.5C9.1,50,7.6,49,5.8,48.3z
		 M23.2,36.2c-0.4,0.4-0.5,0.8-0.5,1.2s0.2,0.8,0.5,1.2c0.4,0.4,0.7,0.5,1.2,0.5s0.8-0.2,1.2-0.5c0.4-0.4,0.5-0.8,0.5-1.2
		s-0.2-0.8-0.5-1.2c-0.4-0.4-0.8-0.5-1.2-0.5C23.9,35.6,23.6,35.8,23.2,36.2z"/>
</g>
</svg>
