<?xml version="1.0" encoding="utf-8"?>
<!-- Generator: Adobe Illustrator 19.0.0, SVG Export Plug-In . SVG Version: 6.00 Build 0)  -->
<svg version="1.1" id="Layer_1" xmlns="http://www.w3.org/2000/svg" xmlns:xlink="http://www.w3.org/1999/xlink" x="0px" y="0px"
	width="60px" height="60px" viewBox="-6.5 36.7 34.7 28.3" style="enable-background:new -6.5 36.7 34.7 28.3;" xml:space="preserve">
<style type="text/css">
	.st0{fill:#FFF;}
</style>
<g id="XMLID_1_">
	<path id="XMLID_2_" class="st0" d="M27.5,40.8c-0.9,1.4-2.1,2.5-3.4,3.5c0,0.2,0,0.5,0,0.8c0,1.8-0.3,3.7-0.8,5.4
		c-0.6,1.8-1.3,3.6-2.4,5.2c-1.1,1.7-2.3,3.1-3.8,4.4c-1.5,1.3-3.3,2.3-5.4,3.1c-2.1,0.8-4.4,1.1-6.8,1.1c-3.8,0-7.2-1-10.4-3
		c0.5,0.1,1,0.1,1.6,0.1c3.1,0,5.9-0.9,8.4-2.9c-1.5,0-2.8-0.5-3.9-1.3c-1.1-0.8-2-2-2.3-3.4c0.5,0.1,0.8,0.1,1.3,0.1
		c0.6,0,1.2-0.1,1.8-0.2c-1.6-0.3-2.8-1.1-3.8-2.3S-4,48.8-4,47.1V47c0.9,0.6,2,0.8,3.1,0.8c-0.9-0.7-1.7-1.4-2.2-2.4
		c-0.6-1-0.8-2.1-0.8-3.2c0-1.2,0.3-2.3,0.9-3.4c1.7,2.1,3.8,3.8,6.2,5s5,2,7.8,2.1c-0.1-0.6-0.2-1-0.2-1.6c0-1.9,0.7-3.5,2-4.8
		s2.9-2,4.8-2c2,0,3.6,0.8,5,2.2c1.5-0.3,2.9-0.8,4.3-1.6c-0.6,1.6-1.5,2.8-3,3.8C24.9,41.7,26.2,41.3,27.5,40.8z"/>
</g>
</svg>
